<svg width="38" height="13" viewBox="0 0 38 13" fill="none" xmlns="http://www.w3.org/2000/svg">
<path d="M0.895 12V11.472H3.567V1.824H1.535V1.408C1.983 1.33333 2.383 1.23733 2.735 1.12C3.087 1.00267 3.38567 0.874666 3.631 0.735999H4.127V11.472H6.623V12H0.895ZM11.8948 12.208C11.1908 12.208 10.5934 11.9787 10.1028 11.52C9.61208 11.0613 9.23875 10.3947 8.98275 9.52C8.72675 8.64533 8.59875 7.584 8.59875 6.336C8.59875 5.088 8.72675 4.032 8.98275 3.168C9.23875 2.304 9.61208 1.648 10.1028 1.2C10.5934 0.752 11.1908 0.528 11.8948 0.528C12.5988 0.528 13.1961 0.752 13.6868 1.2C14.1774 1.648 14.5454 2.304 14.7908 3.168C15.0468 4.032 15.1748 5.088 15.1748 6.336C15.1748 7.584 15.0468 8.64533 14.7908 9.52C14.5454 10.3947 14.1774 11.0613 13.6868 11.52C13.1961 11.9787 12.5988 12.208 11.8948 12.208ZM11.8948 11.68C12.4388 11.68 12.9134 11.4773 13.3188 11.072C13.7241 10.656 14.0334 10.0533 14.2468 9.264C14.4708 8.464 14.5828 7.488 14.5828 6.336C14.5828 5.17333 14.4708 4.20267 14.2468 3.424C14.0334 2.63467 13.7241 2.04267 13.3188 1.648C12.9134 1.24267 12.4388 1.04 11.8948 1.04C11.3508 1.04 10.8761 1.24267 10.4708 1.648C10.0654 2.04267 9.75075 2.63467 9.52675 3.424C9.30275 4.20267 9.19075 5.17333 9.19075 6.336C9.19075 7.488 9.30275 8.464 9.52675 9.264C9.75075 10.0533 10.0654 10.656 10.4708 11.072C10.8761 11.4773 11.3508 11.68 11.8948 11.68ZM20.2385 12.208C19.5345 12.208 18.9372 11.9787 18.4465 11.52C17.9558 11.0613 17.5825 10.3947 17.3265 9.52C17.0705 8.64533 16.9425 7.584 16.9425 6.336C16.9425 5.088 17.0705 4.032 17.3265 3.168C17.5825 2.304 17.9558 1.648 18.4465 1.2C18.9372 0.752 19.5345 0.528 20.2385 0.528C20.9425 0.528 21.5398 0.752 22.0305 1.2C22.5212 1.648 22.8892 2.304 23.1345 3.168C23.3905 4.032 23.5185 5.088 23.5185 6.336C23.5185 7.584 23.3905 8.64533 23.1345 9.52C22.8892 10.3947 22.5212 11.0613 22.0305 11.52C21.5398 11.9787 20.9425 12.208 20.2385 12.208ZM20.2385 11.68C20.7825 11.68 21.2572 11.4773 21.6625 11.072C22.0678 10.656 22.3772 10.0533 22.5905 9.264C22.8145 8.464 22.9265 7.488 22.9265 6.336C22.9265 5.17333 22.8145 4.20267 22.5905 3.424C22.3772 2.63467 22.0678 2.04267 21.6625 1.648C21.2572 1.24267 20.7825 1.04 20.2385 1.04C19.6945 1.04 19.2198 1.24267 18.8145 1.648C18.4092 2.04267 18.0945 2.63467 17.8705 3.424C17.6465 4.20267 17.5345 5.17333 17.5345 6.336C17.5345 7.488 17.6465 8.464 17.8705 9.264C18.0945 10.0533 18.4092 10.656 18.8145 11.072C19.2198 11.4773 19.6945 11.68 20.2385 11.68ZM26.0863 12V3.568H26.5663L26.6623 4.912H26.6943C27.0783 4.47467 27.5049 4.10667 27.9743 3.808C28.4436 3.50933 28.9076 3.36 29.3663 3.36C30.0596 3.36 30.5823 3.52 30.9343 3.84C31.2969 4.16 31.5476 4.58667 31.6863 5.12C32.1876 4.576 32.6729 4.14933 33.1423 3.84C33.6223 3.52 34.1023 3.36 34.5823 3.36C35.4036 3.36 36.0223 3.62667 36.4383 4.16C36.8649 4.68267 37.0783 5.488 37.0783 6.576V12H36.5183V6.656C36.5183 5.728 36.3529 5.03467 36.0223 4.576C35.7023 4.11733 35.2009 3.888 34.5183 3.888C34.1023 3.888 33.6809 4.02667 33.2543 4.304C32.8276 4.58133 32.3636 4.99733 31.8623 5.552V12H31.3023V6.656C31.3023 5.728 31.1423 5.03467 30.8223 4.576C30.5023 4.11733 30.0009 3.888 29.3183 3.888C28.9129 3.888 28.4863 4.02667 28.0383 4.304C27.6009 4.58133 27.1423 4.99733 26.6623 5.552V12H26.0863Z" fill="black"/>
</svg>
