<svg width="28" height="13" viewBox="0 0 28 13" fill="none" xmlns="http://www.w3.org/2000/svg">
<path d="M0.0668751 12V11.472H2.73888V1.824H0.706875V1.408C1.15488 1.33333 1.55488 1.23733 1.90688 1.12C2.25888 1.00267 2.55754 0.874666 2.80288 0.735999H3.29888V11.472H5.79488V12H0.0668751ZM11.0666 12.208C10.3626 12.208 9.76529 11.9787 9.27463 11.52C8.78396 11.0613 8.41063 10.3947 8.15463 9.52C7.89863 8.64533 7.77063 7.584 7.77063 6.336C7.77063 5.088 7.89863 4.032 8.15463 3.168C8.41063 2.304 8.78396 1.648 9.27463 1.2C9.76529 0.752 10.3626 0.528 11.0666 0.528C11.7706 0.528 12.368 0.752 12.8586 1.2C13.3493 1.648 13.7173 2.304 13.9626 3.168C14.2186 4.032 14.3466 5.088 14.3466 6.336C14.3466 7.584 14.2186 8.64533 13.9626 9.52C13.7173 10.3947 13.3493 11.0613 12.8586 11.52C12.368 11.9787 11.7706 12.208 11.0666 12.208ZM11.0666 11.68C11.6106 11.68 12.0853 11.4773 12.4906 11.072C12.896 10.656 13.2053 10.0533 13.4186 9.264C13.6426 8.464 13.7546 7.488 13.7546 6.336C13.7546 5.17333 13.6426 4.20267 13.4186 3.424C13.2053 2.63467 12.896 2.04267 12.4906 1.648C12.0853 1.24267 11.6106 1.04 11.0666 1.04C10.5226 1.04 10.048 1.24267 9.64263 1.648C9.23729 2.04267 8.92263 2.63467 8.69863 3.424C8.47463 4.20267 8.36263 5.17333 8.36263 6.336C8.36263 7.488 8.47463 8.464 8.69863 9.264C8.92263 10.0533 9.23729 10.656 9.64263 11.072C10.048 11.4773 10.5226 11.68 11.0666 11.68ZM16.9144 12V3.568H17.3944L17.4904 4.912H17.5224C17.9064 4.47467 18.333 4.10667 18.8024 3.808C19.2717 3.50933 19.7357 3.36 20.1944 3.36C20.8877 3.36 21.4104 3.52 21.7624 3.84C22.125 4.16 22.3757 4.58667 22.5144 5.12C23.0157 4.576 23.501 4.14933 23.9704 3.84C24.4504 3.52 24.9304 3.36 25.4104 3.36C26.2317 3.36 26.8504 3.62667 27.2664 4.16C27.693 4.68267 27.9064 5.488 27.9064 6.576V12H27.3464V6.656C27.3464 5.728 27.181 5.03467 26.8504 4.576C26.5304 4.11733 26.029 3.888 25.3464 3.888C24.9304 3.888 24.509 4.02667 24.0824 4.304C23.6557 4.58133 23.1917 4.99733 22.6904 5.552V12H22.1304V6.656C22.1304 5.728 21.9704 5.03467 21.6504 4.576C21.3304 4.11733 20.829 3.888 20.1464 3.888C19.741 3.888 19.3144 4.02667 18.8664 4.304C18.429 4.58133 17.9704 4.99733 17.4904 5.552V12H16.9144Z" fill="black"/>
</svg>
