<svg width="29" height="13" viewBox="0 0 29 13" fill="none" xmlns="http://www.w3.org/2000/svg">
<path d="M3.49888 12.208C2.90154 12.208 2.38421 12.1333 1.94688 11.984C1.52021 11.824 1.14688 11.632 0.826875 11.408C0.517542 11.1733 0.245542 10.9387 0.010875 10.704L0.378875 10.272C0.602875 10.5067 0.853542 10.7307 1.13088 10.944C1.41888 11.1573 1.75488 11.3333 2.13888 11.472C2.53354 11.6107 2.99754 11.68 3.53088 11.68C4.04288 11.68 4.51754 11.5467 4.95488 11.28C5.40288 11.0133 5.76021 10.6453 6.02688 10.176C6.29354 9.696 6.42688 9.14133 6.42688 8.512C6.42688 7.56267 6.16554 6.82133 5.64288 6.288C5.13088 5.744 4.43754 5.472 3.56288 5.472C3.13621 5.472 2.75754 5.54667 2.42688 5.696C2.09621 5.83467 1.76554 6.016 1.43488 6.24L0.954875 5.952L1.37088 0.735999H6.44288V1.264H1.89887L1.51488 5.536C1.81354 5.35467 2.12821 5.21067 2.45888 5.104C2.80021 4.98667 3.18421 4.928 3.61088 4.928C4.25088 4.928 4.82688 5.056 5.33888 5.312C5.86154 5.55733 6.27221 5.94133 6.57088 6.464C6.88021 6.98667 7.03488 7.65867 7.03488 8.48C7.03488 9.28 6.85888 9.95733 6.50688 10.512C6.16554 11.0667 5.72288 11.488 5.17888 11.776C4.64554 12.064 4.08554 12.208 3.49888 12.208ZM12.0666 12.208C11.3626 12.208 10.7653 11.9787 10.2746 11.52C9.78396 11.0613 9.41063 10.3947 9.15463 9.52C8.89863 8.64533 8.77063 7.584 8.77063 6.336C8.77063 5.088 8.89863 4.032 9.15463 3.168C9.41063 2.304 9.78396 1.648 10.2746 1.2C10.7653 0.752 11.3626 0.528 12.0666 0.528C12.7706 0.528 13.368 0.752 13.8586 1.2C14.3493 1.648 14.7173 2.304 14.9626 3.168C15.2186 4.032 15.3466 5.088 15.3466 6.336C15.3466 7.584 15.2186 8.64533 14.9626 9.52C14.7173 10.3947 14.3493 11.0613 13.8586 11.52C13.368 11.9787 12.7706 12.208 12.0666 12.208ZM12.0666 11.68C12.6106 11.68 13.0853 11.4773 13.4906 11.072C13.896 10.656 14.2053 10.0533 14.4186 9.264C14.6426 8.464 14.7546 7.488 14.7546 6.336C14.7546 5.17333 14.6426 4.20267 14.4186 3.424C14.2053 2.63467 13.896 2.04267 13.4906 1.648C13.0853 1.24267 12.6106 1.04 12.0666 1.04C11.5226 1.04 11.048 1.24267 10.6426 1.648C10.2373 2.04267 9.92263 2.63467 9.69863 3.424C9.47463 4.20267 9.36263 5.17333 9.36263 6.336C9.36263 7.488 9.47463 8.464 9.69863 9.264C9.92263 10.0533 10.2373 10.656 10.6426 11.072C11.048 11.4773 11.5226 11.68 12.0666 11.68ZM17.9144 12V3.568H18.3944L18.4904 4.912H18.5224C18.9064 4.47467 19.333 4.10667 19.8024 3.808C20.2717 3.50933 20.7357 3.36 21.1944 3.36C21.8877 3.36 22.4104 3.52 22.7624 3.84C23.125 4.16 23.3757 4.58667 23.5144 5.12C24.0157 4.576 24.501 4.14933 24.9704 3.84C25.4504 3.52 25.9304 3.36 26.4104 3.36C27.2317 3.36 27.8504 3.62667 28.2664 4.16C28.693 4.68267 28.9064 5.488 28.9064 6.576V12H28.3464V6.656C28.3464 5.728 28.181 5.03467 27.8504 4.576C27.5304 4.11733 27.029 3.888 26.3464 3.888C25.9304 3.888 25.509 4.02667 25.0824 4.304C24.6557 4.58133 24.1917 4.99733 23.6904 5.552V12H23.1304V6.656C23.1304 5.728 22.9704 5.03467 22.6504 4.576C22.3304 4.11733 21.829 3.888 21.1464 3.888C20.741 3.888 20.3144 4.02667 19.8664 4.304C19.429 4.58133 18.9704 4.99733 18.4904 5.552V12H17.9144Z" fill="black"/>
</svg>
