<svg width="138" height="16" viewBox="0 0 138 16" fill="none" xmlns="http://www.w3.org/2000/svg">
<path d="M7.4 4.96H11.176V5.68H7.4V4.96ZM10.632 0.895999H11.496V11.376H10.632V0.895999ZM2.584 14.048H11.928V14.784H2.584V14.048ZM2.584 10.416H3.432V14.336H2.584V10.416ZM3.72 2.592H4.44V3.904C4.44 4.74667 4.25867 5.536 3.896 6.272C3.53333 6.99733 3.048 7.62667 2.44 8.16C1.84267 8.69333 1.18667 9.10933 0.472 9.408L0.00800002 8.72C0.509333 8.528 0.978667 8.27733 1.416 7.968C1.864 7.648 2.25867 7.28 2.6 6.864C2.952 6.43733 3.224 5.97333 3.416 5.472C3.61867 4.97067 3.72 4.448 3.72 3.904V2.592ZM3.864 2.592H4.584V3.888C4.584 4.53867 4.744 5.16267 5.064 5.76C5.39467 6.34667 5.832 6.86933 6.376 7.328C6.93067 7.776 7.53333 8.12267 8.184 8.368L7.72 9.04C7.016 8.76267 6.37067 8.37333 5.784 7.872C5.208 7.36 4.744 6.76267 4.392 6.08C4.04 5.39733 3.864 4.66667 3.864 3.888V2.592ZM0.328 2.16H7.912V2.896H0.328V2.16ZM24.7268 0.799999H25.5748V8.8H24.7268V0.799999ZM25.1748 4.464H27.8308V5.216H25.1748V4.464ZM16.7428 9.616H25.5748V12.544H17.6068V14.528H16.7908V11.856H24.7428V10.304H16.7428V9.616ZM16.7908 14.24H26.1508V14.944H16.7908V14.24ZM14.6628 2.304H23.1108V3.008H14.6628V2.304ZM18.8868 3.824C19.9001 3.824 20.7108 4.032 21.3188 4.448C21.9268 4.864 22.2308 5.43467 22.2308 6.16C22.2308 6.88533 21.9268 7.46133 21.3188 7.888C20.7108 8.304 19.9001 8.512 18.8868 8.512C17.8628 8.512 17.0414 8.304 16.4228 7.888C15.8148 7.46133 15.5108 6.88533 15.5108 6.16C15.5108 5.43467 15.8148 4.864 16.4228 4.448C17.0414 4.032 17.8628 3.824 18.8868 3.824ZM18.8868 4.496C18.1081 4.496 17.4841 4.65067 17.0148 4.96C16.5561 5.26933 16.3268 5.66933 16.3268 6.16C16.3268 6.672 16.5561 7.08267 17.0148 7.392C17.4841 7.69067 18.1081 7.84 18.8868 7.84C19.6441 7.84 20.2521 7.69067 20.7108 7.392C21.1801 7.08267 21.4148 6.672 21.4148 6.16C21.4148 5.66933 21.1801 5.26933 20.7108 4.96C20.2521 4.65067 19.6441 4.496 18.8868 4.496ZM18.4548 0.704H19.3188V2.784H18.4548V0.704ZM42.9768 0.879999H43.8248V8.208H42.9768V0.879999ZM43.4088 4.144H46.0648V4.88H43.4088V4.144ZM33.5528 1.76H39.9528V7.36H33.5528V1.76ZM39.1368 2.48H34.3688V6.64H39.1368V2.48ZM34.9928 8.96H43.8248V12.208H35.8568V14.624H35.0408V11.52H42.9928V9.68H34.9928V8.96ZM35.0408 14.208H44.4008V14.928H35.0408V14.208ZM54.0155 1.152C55.5515 1.152 56.7568 1.36533 57.6315 1.792C58.5062 2.21867 58.9435 2.832 58.9435 3.632C58.9435 4.44267 58.5062 5.06667 57.6315 5.504C56.7568 5.93067 55.5515 6.144 54.0155 6.144C52.4688 6.144 51.2582 5.93067 50.3835 5.504C49.5088 5.06667 49.0715 4.44267 49.0715 3.632C49.0715 2.832 49.5088 2.21867 50.3835 1.792C51.2582 1.36533 52.4688 1.152 54.0155 1.152ZM53.9995 1.824C53.1782 1.824 52.4635 1.89867 51.8555 2.048C51.2475 2.18667 50.7782 2.39467 50.4475 2.672C50.1168 2.93867 49.9515 3.25867 49.9515 3.632C49.9515 4.016 50.1168 4.34133 50.4475 4.608C50.7782 4.87467 51.2475 5.08267 51.8555 5.232C52.4635 5.38133 53.1782 5.456 53.9995 5.456C54.8422 5.456 55.5622 5.38133 56.1595 5.232C56.7675 5.08267 57.2368 4.87467 57.5675 4.608C57.8982 4.34133 58.0635 4.016 58.0635 3.632C58.0635 3.25867 57.8982 2.93867 57.5675 2.672C57.2368 2.39467 56.7675 2.18667 56.1595 2.048C55.5622 1.89867 54.8422 1.824 53.9995 1.824ZM47.5675 7.264H60.4475V7.984H47.5675V7.264ZM49.1835 9.456H58.7515V12.4H50.0635V14.4H49.2315V11.728H57.9035V10.144H49.1835V9.456ZM49.2315 14.24H59.2155V14.944H49.2315V14.24ZM69.6575 2.352H70.3775V3.664C70.3775 4.50667 70.1962 5.29067 69.8335 6.016C69.4708 6.73067 68.9855 7.36 68.3775 7.904C67.7802 8.43733 67.1242 8.85333 66.4095 9.152L65.9455 8.464C66.4468 8.272 66.9162 8.02133 67.3535 7.712C67.8015 7.392 68.1962 7.01867 68.5375 6.592C68.8895 6.16533 69.1615 5.70667 69.3535 5.216C69.5562 4.71467 69.6575 4.19733 69.6575 3.664V2.352ZM69.8015 2.352H70.5215V3.648C70.5215 4.288 70.6815 4.90667 71.0015 5.504C71.3322 6.09067 71.7695 6.608 72.3135 7.056C72.8682 7.504 73.4708 7.85067 74.1215 8.096L73.6575 8.784C72.9535 8.50667 72.3082 8.112 71.7215 7.6C71.1455 7.088 70.6815 6.49067 70.3295 5.808C69.9775 5.12533 69.8015 4.40533 69.8015 3.648V2.352ZM73.3695 4.784H76.8255V5.52H73.3695V4.784ZM66.2655 1.968H73.8495V2.704H66.2655V1.968ZM68.0415 10.288H77.4335V15.136H76.5695V11.008H68.0415V10.288ZM76.5695 0.879999H77.4335V9.44H76.5695V0.879999ZM84.2803 2.032C84.9736 2.032 85.5763 2.23467 86.0883 2.64C86.6109 3.04533 87.0163 3.616 87.3043 4.352C87.6029 5.07733 87.7523 5.94133 87.7523 6.944C87.7523 7.936 87.6029 8.8 87.3043 9.536C87.0163 10.272 86.6109 10.8427 86.0883 11.248C85.5763 11.6427 84.9736 11.84 84.2803 11.84C83.6083 11.84 83.0056 11.6427 82.4723 11.248C81.9496 10.8427 81.5443 10.272 81.2563 9.536C80.9683 8.8 80.8243 7.936 80.8243 6.944C80.8243 5.94133 80.9683 5.07733 81.2563 4.352C81.5443 3.616 81.9496 3.04533 82.4723 2.64C83.0056 2.23467 83.6083 2.032 84.2803 2.032ZM84.2803 2.784C83.7576 2.784 83.2989 2.96533 82.9043 3.328C82.5096 3.68 82.1949 4.16533 81.9603 4.784C81.7363 5.40267 81.6243 6.12267 81.6243 6.944C81.6243 7.75467 81.7363 8.47467 81.9603 9.104C82.1949 9.73333 82.5096 10.224 82.9043 10.576C83.2989 10.928 83.7576 11.104 84.2803 11.104C84.8029 11.104 85.2669 10.928 85.6723 10.576C86.0776 10.224 86.3923 9.73333 86.6163 9.104C86.8403 8.47467 86.9523 7.75467 86.9523 6.944C86.9523 6.12267 86.8403 5.40267 86.6163 4.784C86.3923 4.16533 86.0776 3.68 85.6723 3.328C85.2669 2.96533 84.8029 2.784 84.2803 2.784ZM91.3043 0.863999H92.1523V15.152H91.3043V0.863999ZM87.4323 6.496H91.7043V7.2H87.4323V6.496ZM101.239 2.176H101.991V2.896C101.991 3.408 101.879 3.888 101.655 4.336C101.431 4.784 101.127 5.19467 100.743 5.568C100.359 5.94133 99.927 6.272 99.447 6.56C98.967 6.848 98.471 7.088 97.959 7.28C97.447 7.472 96.9457 7.616 96.455 7.712L96.103 7.024C96.5297 6.96 96.9777 6.84267 97.447 6.672C97.9163 6.49067 98.375 6.27733 98.823 6.032C99.271 5.776 99.6763 5.488 100.039 5.168C100.412 4.83733 100.706 4.48533 100.919 4.112C101.132 3.728 101.239 3.32267 101.239 2.896V2.176ZM101.415 2.176H102.151V2.896C102.151 3.32267 102.258 3.728 102.471 4.112C102.695 4.48533 102.988 4.83733 103.351 5.168C103.714 5.488 104.119 5.776 104.567 6.032C105.015 6.27733 105.474 6.49067 105.943 6.672C106.423 6.84267 106.871 6.96 107.287 7.024L106.951 7.712C106.471 7.616 105.97 7.472 105.447 7.28C104.935 7.088 104.439 6.848 103.959 6.56C103.479 6.272 103.047 5.94133 102.663 5.568C102.279 5.19467 101.975 4.784 101.751 4.336C101.527 3.888 101.415 3.408 101.415 2.896V2.176ZM101.271 9.568H102.103V15.12H101.271V9.568ZM95.255 9.152H108.151V9.888H95.255V9.152ZM96.503 1.856H106.871V2.576H96.503V1.856ZM115.606 6.176H118.566V6.912H115.606V6.176ZM113.19 2.288H113.878V5.2C113.878 5.904 113.787 6.592 113.606 7.264C113.435 7.936 113.195 8.57067 112.886 9.168C112.587 9.76533 112.224 10.304 111.798 10.784C111.382 11.2533 110.934 11.6373 110.454 11.936L109.878 11.28C110.347 11.0133 110.779 10.6667 111.174 10.24C111.579 9.80267 111.931 9.312 112.23 8.768C112.539 8.21333 112.774 7.632 112.934 7.024C113.104 6.416 113.19 5.808 113.19 5.2V2.288ZM113.318 2.288H114.006V5.168C114.006 5.73333 114.08 6.304 114.23 6.88C114.39 7.456 114.614 8.00533 114.902 8.528C115.19 9.04 115.526 9.50933 115.91 9.936C116.304 10.3627 116.731 10.704 117.19 10.96L116.662 11.616C116.171 11.328 115.723 10.9547 115.318 10.496C114.912 10.0373 114.56 9.52 114.262 8.944C113.963 8.35733 113.728 7.744 113.558 7.104C113.398 6.464 113.318 5.81867 113.318 5.168V2.288ZM121.19 0.879999H122.022V15.136H121.19V0.879999ZM118.294 1.232H119.11V14.384H118.294V1.232ZM128.069 8.272H128.901V12.704H128.069V8.272ZM133.381 8.272H134.245V12.704H133.381V8.272ZM124.693 12.48H137.637V13.216H124.693V12.48ZM131.125 1.904C132.127 1.904 133.007 2.05333 133.765 2.352C134.533 2.64 135.135 3.05067 135.573 3.584C136.01 4.11733 136.229 4.74667 136.229 5.472C136.229 6.18667 136.01 6.816 135.573 7.36C135.135 7.89333 134.533 8.30933 133.765 8.608C133.007 8.896 132.127 9.04 131.125 9.04C130.143 9.04 129.269 8.896 128.501 8.608C127.733 8.30933 127.13 7.89333 126.693 7.36C126.255 6.816 126.037 6.18667 126.037 5.472C126.037 4.74667 126.255 4.11733 126.693 3.584C127.13 3.05067 127.733 2.64 128.501 2.352C129.269 2.05333 130.143 1.904 131.125 1.904ZM131.125 2.592C130.314 2.592 129.583 2.71467 128.933 2.96C128.282 3.20533 127.77 3.54667 127.397 3.984C127.023 4.41067 126.837 4.90667 126.837 5.472C126.837 6.03733 127.023 6.53333 127.397 6.96C127.77 7.38667 128.282 7.72267 128.933 7.968C129.583 8.21333 130.314 8.336 131.125 8.336C131.957 8.336 132.693 8.21333 133.333 7.968C133.983 7.72267 134.495 7.38667 134.869 6.96C135.242 6.53333 135.429 6.03733 135.429 5.472C135.429 4.90667 135.242 4.41067 134.869 3.984C134.495 3.54667 133.983 3.20533 133.333 2.96C132.693 2.71467 131.957 2.592 131.125 2.592Z" fill="#BEBEBE"/>
</svg>
