<svg width="63" height="16" viewBox="0 0 63 16" fill="none" xmlns="http://www.w3.org/2000/svg">
<path d="M5.104 1.472H7.184C7.184 2.73067 6.992 3.86133 6.608 4.864C6.23467 5.86667 5.63733 6.74667 4.816 7.504C3.99467 8.25067 2.912 8.88533 1.568 9.408L0.592 7.888C1.70133 7.472 2.58667 6.98667 3.248 6.432C3.90933 5.87733 4.384 5.248 4.672 4.544C4.96 3.82933 5.104 3.04 5.104 2.176V1.472ZM1.344 1.472H5.76V3.152H1.344V1.472ZM5.184 4.112V5.568L0.992 6.016L0.736 4.352L5.184 4.112ZM11.248 0.591999H13.28V8.8H11.248V0.591999ZM9.472 3.92H11.824V5.616H9.472V3.92ZM8.016 0.863999H10V8.704H8.016V0.863999ZM3.216 9.392H5.328V10.688H11.184V9.392H13.296V15.264H3.216V9.392ZM5.328 12.32V13.6H11.184V12.32H5.328ZM23.1828 2.528H26.1428V4.224H23.1828V2.528ZM23.1828 5.376H26.1428V7.072H23.1828V5.376ZM18.7668 1.44H20.4788V3.152C20.4788 4.176 20.3348 5.136 20.0468 6.032C19.7588 6.928 19.3161 7.712 18.7188 8.384C18.1214 9.04533 17.3534 9.552 16.4148 9.904L15.2788 8.256C15.8974 8.032 16.4254 7.744 16.8628 7.392C17.3001 7.04 17.6574 6.64 17.9348 6.192C18.2121 5.73333 18.4201 5.248 18.5588 4.736C18.6974 4.21333 18.7668 3.68533 18.7668 3.152V1.44ZM19.1988 1.44H20.9108V3.152C20.9108 3.65333 20.9748 4.15467 21.1028 4.656C21.2308 5.14667 21.4281 5.61067 21.6948 6.048C21.9614 6.48533 22.3028 6.88 22.7188 7.232C23.1348 7.584 23.6361 7.86667 24.2228 8.08L23.0548 9.744C22.1801 9.392 21.4548 8.88533 20.8788 8.224C20.3134 7.56267 19.8921 6.79467 19.6148 5.92C19.3374 5.04533 19.1988 4.12267 19.1988 3.152V1.44ZM25.6308 0.608H27.7748V11.568H25.6308V0.608ZM17.9668 13.456H28.0948V15.168H17.9668V13.456ZM17.9668 10.576H20.0948V14.544H17.9668V10.576ZM39.3345 10.08H41.4625V15.44H39.3345V10.08ZM33.7185 9.472H47.1265V11.2H33.7185V9.472ZM39.3185 3.264H41.1905V3.616C41.1905 4.10667 41.1052 4.58667 40.9345 5.056C40.7745 5.51467 40.5292 5.94667 40.1985 6.352C39.8678 6.74667 39.4572 7.10933 38.9665 7.44C38.4758 7.76 37.9105 8.032 37.2705 8.256C36.6305 8.46933 35.9212 8.624 35.1425 8.72L34.3905 7.04C35.0625 6.96533 35.6598 6.84267 36.1825 6.672C36.7158 6.50133 37.1798 6.29867 37.5745 6.064C37.9692 5.82933 38.2945 5.57867 38.5505 5.312C38.8172 5.03467 39.0092 4.752 39.1265 4.464C39.2545 4.16533 39.3185 3.88267 39.3185 3.616V3.264ZM39.6065 3.264H41.4625V3.616C41.4625 3.872 41.5265 4.14933 41.6545 4.448C41.7932 4.736 41.9905 5.01867 42.2465 5.296C42.5025 5.56267 42.8278 5.81867 43.2225 6.064C43.6172 6.29867 44.0758 6.50133 44.5985 6.672C45.1318 6.84267 45.7292 6.96533 46.3905 7.04L45.6545 8.72C44.8652 8.63467 44.1505 8.48 43.5105 8.256C42.8812 8.02133 42.3212 7.744 41.8305 7.424C41.3398 7.104 40.9292 6.74133 40.5985 6.336C40.2678 5.92 40.0172 5.48267 39.8465 5.024C39.6865 4.56533 39.6065 4.096 39.6065 3.616V3.264ZM34.9185 2.288H45.8945V3.968H34.9185V2.288ZM39.3345 0.639999H41.4625V2.864H39.3345V0.639999ZM57.8933 0.575999H60.0373V15.392H57.8933V0.575999ZM59.4933 6.256H62.1013V8H59.4933V6.256ZM54.0053 2.112H56.1013C56.1013 3.59467 55.8879 4.99733 55.4613 6.32C55.0453 7.64267 54.3519 8.85867 53.3813 9.968C52.4213 11.0667 51.1199 12.0267 49.4773 12.848L48.2773 11.232C49.5786 10.56 50.6506 9.80267 51.4933 8.96C52.3466 8.11733 52.9759 7.16267 53.3813 6.096C53.7973 5.01867 54.0053 3.81867 54.0053 2.496V2.112ZM49.0933 2.112H55.1093V3.824H49.0933V2.112Z" fill="black"/>
</svg>
