<svg width="68" height="12" viewBox="0 0 68 12" fill="none" xmlns="http://www.w3.org/2000/svg">
<path d="M0.281289 9V1.014H0.688289V9H0.281289ZM3.10648 9V1.014H3.75548L5.46048 5.832C5.57048 6.12533 5.68048 6.426 5.79048 6.734C5.90048 7.03467 6.01048 7.33533 6.12048 7.636H6.16448C6.27448 7.33533 6.38082 7.03467 6.48348 6.734C6.58615 6.426 6.68882 6.12533 6.79148 5.832L8.50748 1.014H9.15648V9H8.74948V3.478C8.74948 3.26533 8.74948 3.04167 8.74948 2.807C8.75682 2.565 8.76415 2.323 8.77148 2.081C8.77882 1.83167 8.78615 1.60067 8.79348 1.388H8.74948L8.13348 3.148L6.34048 8.109H5.91148L4.10748 3.148L3.48048 1.388H3.43648C3.45115 1.60067 3.46215 1.83167 3.46948 2.081C3.47682 2.323 3.48048 2.565 3.48048 2.807C3.48782 3.04167 3.49148 3.26533 3.49148 3.478V9H3.10648ZM14.4093 9.143C13.7347 9.143 13.1443 8.97067 12.6383 8.626C12.1323 8.28133 11.74 7.79733 11.4613 7.174C11.1827 6.55067 11.0433 5.821 11.0433 4.985C11.0433 4.35433 11.124 3.786 11.2853 3.28C11.454 2.774 11.6923 2.34133 12.0003 1.982C12.3083 1.62267 12.675 1.34767 13.1003 1.157C13.5257 0.966333 14.0023 0.871 14.5303 0.871C15.0657 0.871 15.502 0.973666 15.8393 1.179C16.184 1.38433 16.459 1.597 16.6643 1.817L16.4113 2.092C16.206 1.86467 15.953 1.67033 15.6523 1.509C15.3517 1.34033 14.9777 1.256 14.5303 1.256C13.8997 1.256 13.3533 1.41 12.8913 1.718C12.4367 2.01867 12.0847 2.44767 11.8353 3.005C11.5933 3.56233 11.4723 4.22233 11.4723 4.985C11.4723 5.74767 11.5897 6.41133 11.8243 6.976C12.0663 7.54067 12.4073 7.98067 12.8473 8.296C13.2947 8.604 13.8263 8.758 14.4423 8.758C14.8237 8.758 15.183 8.703 15.5203 8.593C15.8577 8.47567 16.1253 8.318 16.3233 8.12V5.502H14.3543V5.139H16.7523V8.252C16.503 8.516 16.1803 8.73233 15.7843 8.901C15.3883 9.06233 14.93 9.143 14.4093 9.143ZM17.7768 10.386V9.99H23.5408V10.386H17.7768ZM26.5966 9.143C26.1273 9.143 25.7093 9.05133 25.3426 8.868C24.976 8.67733 24.6863 8.42433 24.4736 8.109C24.2683 7.78633 24.1656 7.42333 24.1656 7.02C24.1656 6.66067 24.2463 6.338 24.4076 6.052C24.569 5.766 24.7706 5.51667 25.0126 5.304C25.2546 5.084 25.4966 4.91167 25.7386 4.787V4.743C25.46 4.55967 25.2033 4.32133 24.9686 4.028C24.7413 3.73467 24.6276 3.38267 24.6276 2.972C24.6276 2.60533 24.7156 2.28267 24.8916 2.004C25.0676 1.72533 25.3023 1.509 25.5956 1.355C25.8963 1.19367 26.23 1.113 26.5966 1.113C27.0366 1.113 27.407 1.201 27.7076 1.377C28.0156 1.553 28.2503 1.79133 28.4116 2.092C28.573 2.39267 28.6536 2.73367 28.6536 3.115C28.6536 3.40833 28.5913 3.687 28.4666 3.951C28.342 4.20767 28.1953 4.435 28.0266 4.633C27.858 4.831 27.7003 4.99233 27.5536 5.117V5.161C27.7736 5.30033 27.9863 5.458 28.1916 5.634C28.397 5.80267 28.5656 6.008 28.6976 6.25C28.837 6.492 28.9066 6.789 28.9066 7.141C28.9066 7.50767 28.8076 7.845 28.6096 8.153C28.419 8.45367 28.1513 8.69567 27.8066 8.879C27.462 9.055 27.0586 9.143 26.5966 9.143ZM27.1796 4.996C27.5243 4.71733 27.7883 4.424 27.9716 4.116C28.1623 3.80067 28.2576 3.467 28.2576 3.115C28.2576 2.82167 28.1916 2.55033 28.0596 2.301C27.935 2.05167 27.748 1.85 27.4986 1.696C27.2493 1.542 26.9486 1.465 26.5966 1.465C26.1346 1.465 25.757 1.608 25.4636 1.894C25.1776 2.18 25.0346 2.53933 25.0346 2.972C25.0346 3.35333 25.141 3.66867 25.3536 3.918C25.5663 4.16733 25.8376 4.37633 26.1676 4.545C26.4976 4.70633 26.835 4.85667 27.1796 4.996ZM26.5966 8.78C26.9853 8.78 27.319 8.70667 27.5976 8.56C27.8836 8.41333 28.1036 8.21533 28.2576 7.966C28.4116 7.71667 28.4886 7.44167 28.4886 7.141C28.4886 6.82567 28.419 6.558 28.2796 6.338C28.1403 6.11067 27.9533 5.92 27.7186 5.766C27.4913 5.60467 27.231 5.46167 26.9376 5.337C26.6443 5.21233 26.3436 5.09133 26.0356 4.974C25.6103 5.216 25.2583 5.50567 24.9796 5.843C24.7083 6.173 24.5726 6.56533 24.5726 7.02C24.5726 7.34267 24.657 7.63967 24.8256 7.911C25.0016 8.175 25.2436 8.38767 25.5516 8.549C25.8596 8.703 26.208 8.78 26.5966 8.78ZM29.924 9V8.747C30.7966 7.85233 31.5153 7.08233 32.08 6.437C32.652 5.78433 33.0773 5.205 33.356 4.699C33.642 4.18567 33.785 3.698 33.785 3.236C33.785 2.906 33.7226 2.609 33.598 2.345C33.4806 2.07367 33.2936 1.861 33.037 1.707C32.7803 1.54567 32.4466 1.465 32.036 1.465C31.6766 1.465 31.3356 1.564 31.013 1.762C30.6976 1.95267 30.419 2.19833 30.177 2.499L29.902 2.246C30.1806 1.92333 30.4923 1.65567 30.837 1.443C31.189 1.223 31.5996 1.113 32.069 1.113C32.5236 1.113 32.9086 1.201 33.224 1.377C33.5393 1.553 33.7813 1.80233 33.95 2.125C34.1186 2.44033 34.203 2.81067 34.203 3.236C34.203 3.75667 34.0526 4.28467 33.752 4.82C33.4513 5.35533 33.026 5.93467 32.476 6.558C31.926 7.18133 31.2733 7.89267 30.518 8.692C30.7306 8.67733 30.947 8.66633 31.167 8.659C31.3943 8.64433 31.6143 8.637 31.827 8.637H34.599V9H29.924ZM37.4203 9.143C37.0756 9.143 36.775 9.077 36.5183 8.945C36.269 8.813 36.049 8.637 35.8583 8.417L36.1113 8.131C36.2873 8.351 36.489 8.516 36.7163 8.626C36.951 8.72867 37.193 8.78 37.4423 8.78C37.8676 8.78 38.26 8.65533 38.6193 8.406C38.9786 8.14933 39.2683 7.72767 39.4883 7.141C39.7156 6.547 39.8293 5.74767 39.8293 4.743C39.8293 4.11233 39.756 3.55133 39.6093 3.06C39.4626 2.56133 39.2353 2.17267 38.9273 1.894C38.6193 1.608 38.2196 1.465 37.7283 1.465C37.4203 1.465 37.1416 1.55667 36.8923 1.74C36.6503 1.92333 36.456 2.169 36.3093 2.477C36.17 2.785 36.1003 3.12967 36.1003 3.511C36.1003 3.89233 36.159 4.24067 36.2763 4.556C36.3936 4.864 36.5806 5.10967 36.8373 5.293C37.1013 5.469 37.4386 5.557 37.8493 5.557C38.1426 5.557 38.4653 5.458 38.8173 5.26C39.1766 5.05467 39.525 4.71733 39.8623 4.248L39.8733 4.754C39.69 4.98133 39.4846 5.183 39.2573 5.359C39.0373 5.52767 38.8063 5.65967 38.5643 5.755C38.3223 5.85033 38.073 5.898 37.8163 5.898C37.369 5.898 36.984 5.80633 36.6613 5.623C36.346 5.43967 36.104 5.172 35.9353 4.82C35.7666 4.46067 35.6823 4.02433 35.6823 3.511C35.6823 3.049 35.7776 2.63833 35.9683 2.279C36.159 1.91233 36.4083 1.62633 36.7163 1.421C37.0316 1.21567 37.3763 1.113 37.7503 1.113C38.139 1.113 38.4873 1.19367 38.7953 1.355C39.1033 1.51633 39.3636 1.75467 39.5763 2.07C39.789 2.378 39.9503 2.75567 40.0603 3.203C40.1776 3.65033 40.2363 4.16367 40.2363 4.743C40.2363 5.56433 40.1593 6.25733 40.0053 6.822C39.8513 7.38667 39.6423 7.84133 39.3783 8.186C39.1143 8.52333 38.8136 8.769 38.4763 8.923C38.139 9.06967 37.787 9.143 37.4203 9.143ZM43.1566 9.143C42.812 9.143 42.5113 9.077 42.2546 8.945C42.0053 8.813 41.7853 8.637 41.5946 8.417L41.8476 8.131C42.0236 8.351 42.2253 8.516 42.4526 8.626C42.6873 8.72867 42.9293 8.78 43.1786 8.78C43.604 8.78 43.9963 8.65533 44.3556 8.406C44.715 8.14933 45.0046 7.72767 45.2246 7.141C45.452 6.547 45.5656 5.74767 45.5656 4.743C45.5656 4.11233 45.4923 3.55133 45.3456 3.06C45.199 2.56133 44.9716 2.17267 44.6636 1.894C44.3556 1.608 43.956 1.465 43.4646 1.465C43.1566 1.465 42.878 1.55667 42.6286 1.74C42.3866 1.92333 42.1923 2.169 42.0456 2.477C41.9063 2.785 41.8366 3.12967 41.8366 3.511C41.8366 3.89233 41.8953 4.24067 42.0126 4.556C42.13 4.864 42.317 5.10967 42.5736 5.293C42.8376 5.469 43.175 5.557 43.5856 5.557C43.879 5.557 44.2016 5.458 44.5536 5.26C44.913 5.05467 45.2613 4.71733 45.5986 4.248L45.6096 4.754C45.4263 4.98133 45.221 5.183 44.9936 5.359C44.7736 5.52767 44.5426 5.65967 44.3006 5.755C44.0586 5.85033 43.8093 5.898 43.5526 5.898C43.1053 5.898 42.7203 5.80633 42.3976 5.623C42.0823 5.43967 41.8403 5.172 41.6716 4.82C41.503 4.46067 41.4186 4.02433 41.4186 3.511C41.4186 3.049 41.514 2.63833 41.7046 2.279C41.8953 1.91233 42.1446 1.62633 42.4526 1.421C42.768 1.21567 43.1126 1.113 43.4866 1.113C43.8753 1.113 44.2236 1.19367 44.5316 1.355C44.8396 1.51633 45.1 1.75467 45.3126 2.07C45.5253 2.378 45.6866 2.75567 45.7966 3.203C45.914 3.65033 45.9726 4.16367 45.9726 4.743C45.9726 5.56433 45.8956 6.25733 45.7416 6.822C45.5876 7.38667 45.3786 7.84133 45.1146 8.186C44.8506 8.52333 44.55 8.769 44.2126 8.923C43.8753 9.06967 43.5233 9.143 43.1566 9.143ZM47.892 9.143C47.782 9.143 47.6793 9.099 47.584 9.011C47.496 8.93033 47.452 8.81667 47.452 8.67C47.452 8.50867 47.496 8.38767 47.584 8.307C47.6793 8.219 47.782 8.175 47.892 8.175C48.0093 8.175 48.112 8.219 48.2 8.307C48.2953 8.38767 48.343 8.50867 48.343 8.67C48.343 8.81667 48.2953 8.93033 48.2 9.011C48.112 9.099 48.0093 9.143 47.892 9.143ZM50.3279 11.673V3.203H50.6579L50.7239 3.951H50.7459C51.0319 3.72367 51.3435 3.51833 51.6809 3.335C52.0255 3.15167 52.3775 3.06 52.7369 3.06C53.2649 3.06 53.7012 3.18467 54.0459 3.434C54.3905 3.676 54.6472 4.017 54.8159 4.457C54.9845 4.897 55.0689 5.41767 55.0689 6.019C55.0689 6.67167 54.9479 7.23267 54.7059 7.702C54.4712 8.17133 54.1595 8.53067 53.7709 8.78C53.3822 9.022 52.9569 9.143 52.4949 9.143C52.2235 9.143 51.9375 9.08067 51.6369 8.956C51.3362 8.824 51.0319 8.64433 50.7239 8.417V9.506V11.673H50.3279ZM52.5279 8.78C52.9385 8.78 53.3015 8.66267 53.6169 8.428C53.9395 8.19333 54.1925 7.867 54.3759 7.449C54.5592 7.031 54.6509 6.55433 54.6509 6.019C54.6509 5.52767 54.5849 5.08767 54.4529 4.699C54.3282 4.303 54.1229 3.99133 53.8369 3.764C53.5582 3.53667 53.1805 3.423 52.7039 3.423C52.4105 3.423 52.0989 3.511 51.7689 3.687C51.4389 3.85567 51.0905 4.10133 50.7239 4.424V7.999C51.0685 8.285 51.3985 8.48667 51.7139 8.604C52.0292 8.72133 52.3005 8.78 52.5279 8.78ZM56.8698 9V3.203H57.1998L57.2658 4.127H57.2878C57.5885 3.82633 57.8965 3.57333 58.2118 3.368C58.5272 3.16267 58.8865 3.06 59.2898 3.06C59.8838 3.06 60.3238 3.24333 60.6098 3.61C60.8958 3.96933 61.0388 4.523 61.0388 5.271V9H60.6428V5.326C60.6428 4.688 60.5328 4.21133 60.3128 3.896C60.1002 3.58067 59.7445 3.423 59.2458 3.423C58.8865 3.423 58.5565 3.51833 58.2558 3.709C57.9625 3.89967 57.6325 4.18567 57.2658 4.567V9H56.8698ZM65.1207 11.827C64.6294 11.827 64.204 11.7573 63.8447 11.618C63.4927 11.486 63.2214 11.299 63.0307 11.057C62.84 10.815 62.7447 10.5327 62.7447 10.21C62.7447 9.95333 62.8217 9.69667 62.9757 9.44C63.137 9.19067 63.3534 8.97067 63.6247 8.78V8.736C63.478 8.648 63.3534 8.527 63.2507 8.373C63.1554 8.219 63.1077 8.032 63.1077 7.812C63.1077 7.548 63.181 7.328 63.3277 7.152C63.4817 6.96867 63.621 6.833 63.7457 6.745V6.701C63.5624 6.53967 63.3937 6.32333 63.2397 6.052C63.0857 5.77333 63.0087 5.458 63.0087 5.106C63.0087 4.71 63.0967 4.358 63.2727 4.05C63.4487 3.742 63.687 3.5 63.9877 3.324C64.2957 3.148 64.633 3.06 64.9997 3.06C65.1684 3.06 65.315 3.07467 65.4397 3.104C65.5717 3.13333 65.678 3.16633 65.7587 3.203H67.6947V3.566H66.3087C66.514 3.73467 66.679 3.951 66.8037 4.215C66.9284 4.479 66.9907 4.776 66.9907 5.106C66.9907 5.48733 66.9027 5.83567 66.7267 6.151C66.5507 6.459 66.3124 6.70467 66.0117 6.888C65.711 7.07133 65.3737 7.163 64.9997 7.163C64.8384 7.163 64.666 7.141 64.4827 7.097C64.3067 7.04567 64.1527 6.97967 64.0207 6.899C63.8887 7.00167 63.7714 7.12633 63.6687 7.273C63.566 7.41233 63.5147 7.581 63.5147 7.779C63.5147 7.999 63.5917 8.18967 63.7457 8.351C63.8997 8.505 64.2004 8.582 64.6477 8.582H65.9347C66.5727 8.582 67.042 8.68833 67.3427 8.901C67.6434 9.10633 67.7937 9.43267 67.7937 9.88C67.7937 10.2027 67.6837 10.5143 67.4637 10.815C67.2437 11.1157 66.932 11.3577 66.5287 11.541C66.1327 11.7317 65.6634 11.827 65.1207 11.827ZM64.9997 6.8C65.2857 6.8 65.546 6.73033 65.7807 6.591C66.0227 6.44433 66.217 6.24267 66.3637 5.986C66.5104 5.72933 66.5837 5.436 66.5837 5.106C66.5837 4.76133 66.5104 4.46433 66.3637 4.215C66.2244 3.95833 66.0337 3.764 65.7917 3.632C65.557 3.49267 65.293 3.423 64.9997 3.423C64.7137 3.423 64.4497 3.49267 64.2077 3.632C63.973 3.764 63.7824 3.95467 63.6357 4.204C63.4964 4.45333 63.4267 4.754 63.4267 5.106C63.4267 5.436 63.5 5.72933 63.6467 5.986C63.7934 6.24267 63.984 6.44433 64.2187 6.591C64.4607 6.73033 64.721 6.8 64.9997 6.8ZM65.1427 11.475C65.6047 11.475 66.0007 11.398 66.3307 11.244C66.668 11.09 66.9284 10.892 67.1117 10.65C67.295 10.4153 67.3867 10.1733 67.3867 9.924C67.3867 9.57933 67.2657 9.33367 67.0237 9.187C66.789 9.04767 66.4444 8.978 65.9897 8.978H64.6697C64.633 8.978 64.545 8.97067 64.4057 8.956C64.2737 8.94133 64.127 8.91567 63.9657 8.879C63.6797 9.06967 63.4744 9.27867 63.3497 9.506C63.225 9.74067 63.1627 9.96433 63.1627 10.177C63.1627 10.5583 63.335 10.87 63.6797 11.112C64.0244 11.354 64.512 11.475 65.1427 11.475Z" fill="black"/>
</svg>
