<svg width="193" height="18" viewBox="0 0 193 18" fill="none" xmlns="http://www.w3.org/2000/svg">
<path d="M4.608 2.368H5.312V3.68C5.312 4.53333 5.136 5.31733 4.784 6.032C4.432 6.74667 3.95733 7.36533 3.36 7.888C2.76267 8.41067 2.096 8.816 1.36 9.104L0.912 8.416C1.584 8.17067 2.19733 7.81867 2.752 7.36C3.31733 6.89067 3.76533 6.34133 4.096 5.712C4.43733 5.08267 4.608 4.40533 4.608 3.68V2.368ZM4.736 2.368H5.456V3.664C5.456 4.32533 5.616 4.944 5.936 5.52C6.256 6.096 6.68267 6.60267 7.216 7.04C7.76 7.46667 8.36267 7.79733 9.024 8.032L8.608 8.704C7.88267 8.448 7.22667 8.07467 6.64 7.584C6.064 7.09333 5.6 6.512 5.248 5.84C4.90667 5.168 4.736 4.44267 4.736 3.664V2.368ZM1.216 1.984H8.8V2.72H1.216V1.984ZM11.008 0.879999H11.856V9.552H11.008V0.879999ZM11.632 4.704H14.096V5.44H11.632V4.704ZM7.376 10.016C8.336 10.016 9.15733 10.1173 9.84 10.32C10.5333 10.5227 11.0613 10.8107 11.424 11.184C11.7973 11.5467 11.984 12 11.984 12.544C11.984 13.0773 11.7973 13.536 11.424 13.92C11.0613 14.304 10.5333 14.592 9.84 14.784C9.15733 14.9867 8.336 15.088 7.376 15.088C6.42667 15.088 5.60533 14.9867 4.912 14.784C4.22933 14.592 3.70133 14.304 3.328 13.92C2.96533 13.536 2.784 13.0773 2.784 12.544C2.784 12 2.96533 11.5467 3.328 11.184C3.70133 10.8107 4.22933 10.5227 4.912 10.32C5.60533 10.1173 6.42667 10.016 7.376 10.016ZM7.376 10.72C6.61867 10.72 5.95733 10.7947 5.392 10.944C4.82667 11.0933 4.38933 11.3067 4.08 11.584C3.77067 11.8507 3.616 12.1707 3.616 12.544C3.616 12.9173 3.77067 13.2427 4.08 13.52C4.38933 13.7973 4.82667 14.0107 5.392 14.16C5.95733 14.3093 6.61867 14.384 7.376 14.384C8.144 14.384 8.81067 14.3093 9.376 14.16C9.952 14.0107 10.3893 13.7973 10.688 13.52C10.9973 13.2427 11.152 12.9173 11.152 12.544C11.152 12.1707 10.9973 11.8507 10.688 11.584C10.3893 11.3067 9.952 11.0933 9.376 10.944C8.81067 10.7947 8.144 10.72 7.376 10.72ZM15.5988 12.448H28.5428V13.184H15.5988V12.448ZM21.5988 8.816H22.4308V12.752H21.5988V8.816ZM21.5828 1.92H22.3348V3.072C22.3348 3.68 22.2121 4.25067 21.9668 4.784C21.7321 5.31733 21.4068 5.808 20.9908 6.256C20.5854 6.69333 20.1321 7.088 19.6308 7.44C19.1401 7.78133 18.6334 8.06933 18.1108 8.304C17.5881 8.528 17.0921 8.69867 16.6228 8.816L16.2388 8.112C16.6441 8.02667 17.0868 7.88267 17.5668 7.68C18.0574 7.47733 18.5374 7.22133 19.0068 6.912C19.4761 6.60267 19.9028 6.25067 20.2868 5.856C20.6814 5.45067 20.9961 5.01333 21.2308 4.544C21.4654 4.07467 21.5828 3.584 21.5828 3.072V1.92ZM21.7108 1.92H22.4468V3.072C22.4468 3.584 22.5641 4.07467 22.7987 4.544C23.0441 5.01333 23.3588 5.44533 23.7428 5.84C24.1374 6.23467 24.5694 6.592 25.0388 6.912C25.5188 7.22133 25.9988 7.47733 26.4788 7.68C26.9588 7.88267 27.4014 8.02667 27.8068 8.112L27.4228 8.816C26.9534 8.70933 26.4574 8.53867 25.9348 8.304C25.4121 8.06933 24.9001 7.78133 24.3988 7.44C23.8974 7.088 23.4441 6.688 23.0388 6.24C22.6334 5.792 22.3081 5.30667 22.0628 4.784C21.8281 4.25067 21.7108 3.68 21.7108 3.072V1.92ZM44.5848 0.879999H45.4488V11.664H44.5848V0.879999ZM36.4888 14.048H45.9288V14.784H36.4888V14.048ZM36.4888 10.688H37.3368V14.24H36.4888V10.688ZM34.0888 2.784H42.8088V3.504H34.0888V2.784ZM38.4408 4.448C39.1341 4.448 39.7314 4.55467 40.2328 4.768C40.7448 4.98133 41.1448 5.28533 41.4328 5.68C41.7208 6.064 41.8648 6.52267 41.8648 7.056C41.8648 7.57867 41.7208 8.03733 41.4328 8.432C41.1448 8.816 40.7448 9.11467 40.2328 9.328C39.7314 9.54133 39.1341 9.648 38.4408 9.648C37.7581 9.648 37.1554 9.54133 36.6328 9.328C36.1208 9.11467 35.7208 8.816 35.4328 8.432C35.1554 8.03733 35.0168 7.57867 35.0168 7.056C35.0168 6.52267 35.1554 6.064 35.4328 5.68C35.7208 5.28533 36.1208 4.98133 36.6328 4.768C37.1554 4.55467 37.7581 4.448 38.4408 4.448ZM38.4408 5.136C37.6621 5.136 37.0274 5.31733 36.5368 5.68C36.0568 6.032 35.8168 6.49067 35.8168 7.056C35.8168 7.62133 36.0568 8.08 36.5368 8.432C37.0274 8.77333 37.6621 8.944 38.4408 8.944C39.2194 8.944 39.8488 8.77333 40.3288 8.432C40.8087 8.08 41.0487 7.62133 41.0487 7.056C41.0487 6.49067 40.8087 6.032 40.3288 5.68C39.8488 5.31733 39.2194 5.136 38.4408 5.136ZM38.0248 0.863999H38.8728V3.04H38.0248V0.863999ZM50.3115 8.768H59.9755V9.504H50.3115V8.768ZM48.5675 12.448H61.5115V13.184H48.5675V12.448ZM50.3115 2.208H59.8155V2.928H51.1755V9.024H50.3115V2.208ZM50.8875 5.408H59.5115V6.128H50.8875V5.408ZM63.2703 7.648H76.2143V8.336H63.2703V7.648ZM64.8703 9.744H74.5503V12.592H65.7503V14.528H64.9183V11.92H73.7183V10.416H64.8703V9.744ZM64.9183 14.24H75.0463V14.912H64.9183V14.24ZM64.9503 1.392H74.5023V4.128H65.8303V5.904H64.9983V3.472H73.6543V2.064H64.9503V1.392ZM64.9983 5.648H74.7583V6.336H64.9983V5.648ZM92.2723 0.879999H93.1363V8.528H92.2723V0.879999ZM84.1283 9.296H84.9763V11.264H92.2883V9.296H93.1363V14.928H84.1283V9.296ZM84.9763 11.984V14.208H92.2883V11.984H84.9763ZM85.5523 1.616C86.2563 1.616 86.8803 1.74933 87.4243 2.016C87.9683 2.28267 88.3949 2.66133 88.7043 3.152C89.0243 3.632 89.1843 4.19733 89.1843 4.848C89.1843 5.488 89.0243 6.05333 88.7043 6.544C88.3949 7.03467 87.9683 7.41333 87.4243 7.68C86.8803 7.94667 86.2563 8.08 85.5523 8.08C84.8483 8.08 84.2243 7.94667 83.6803 7.68C83.1363 7.41333 82.7043 7.03467 82.3843 6.544C82.0749 6.05333 81.9203 5.488 81.9203 4.848C81.9203 4.19733 82.0749 3.632 82.3843 3.152C82.7043 2.66133 83.1363 2.28267 83.6803 2.016C84.2243 1.74933 84.8483 1.616 85.5523 1.616ZM85.5523 2.336C85.0189 2.336 84.5389 2.44267 84.1123 2.656C83.6963 2.86933 83.3656 3.168 83.1203 3.552C82.8856 3.936 82.7682 4.368 82.7682 4.848C82.7682 5.31733 82.8856 5.744 83.1203 6.128C83.3656 6.50133 83.6963 6.8 84.1123 7.024C84.5389 7.23733 85.0189 7.344 85.5523 7.344C86.0963 7.344 86.5763 7.23733 86.9923 7.024C87.4189 6.8 87.7496 6.50133 87.9843 6.128C88.2296 5.744 88.3523 5.31733 88.3523 4.848C88.3523 4.368 88.2296 3.936 87.9843 3.552C87.7496 3.168 87.4189 2.86933 86.9923 2.656C86.5763 2.44267 86.0963 2.336 85.5523 2.336ZM96.895 8.112H97.871C98.831 8.112 99.6523 8.10667 100.335 8.096C101.028 8.07467 101.652 8.03733 102.207 7.984C102.772 7.93067 103.348 7.856 103.935 7.76L104.015 8.48C103.567 8.55467 103.13 8.61867 102.703 8.672C102.276 8.71467 101.828 8.74667 101.359 8.768C100.9 8.78933 100.383 8.80533 99.807 8.816C99.2417 8.82667 98.5963 8.832 97.871 8.832H96.895V8.112ZM96.847 1.76H102.927V5.52H97.743V8.496H96.895V4.816H102.079V2.48H96.847V1.76ZM107.007 0.895999H107.871V9.648H107.007V0.895999ZM103.951 3.088H107.279V3.808H103.951V3.088ZM103.951 5.984H107.279V6.72H103.951V5.984ZM98.463 10.48H107.871V15.168H107.007V11.2H98.463V10.48ZM120.958 0.879999H121.822V15.136H120.958V0.879999ZM121.598 6.912H124.318V7.648H121.598V6.912ZM110.894 3.248H119.374V3.984H110.894V3.248ZM115.23 5.392C115.88 5.392 116.462 5.53067 116.974 5.808C117.486 6.07467 117.886 6.448 118.174 6.928C118.462 7.408 118.606 7.96267 118.606 8.592C118.606 9.22133 118.462 9.78133 118.174 10.272C117.886 10.752 117.486 11.1253 116.974 11.392C116.462 11.6587 115.88 11.792 115.23 11.792C114.568 11.792 113.982 11.6587 113.47 11.392C112.958 11.1253 112.558 10.752 112.27 10.272C111.982 9.78133 111.838 9.22133 111.838 8.592C111.838 7.96267 111.982 7.408 112.27 6.928C112.558 6.448 112.958 6.07467 113.47 5.808C113.982 5.53067 114.568 5.392 115.23 5.392ZM115.23 6.128C114.728 6.128 114.28 6.23467 113.886 6.448C113.502 6.66133 113.198 6.95467 112.974 7.328C112.75 7.70133 112.638 8.12267 112.638 8.592C112.638 9.06133 112.75 9.48267 112.974 9.856C113.198 10.2293 113.502 10.5227 113.886 10.736C114.28 10.9493 114.728 11.056 115.23 11.056C115.72 11.056 116.158 10.9493 116.542 10.736C116.936 10.5227 117.24 10.2293 117.454 9.856C117.678 9.48267 117.79 9.06133 117.79 8.592C117.79 8.12267 117.678 7.70133 117.454 7.328C117.24 6.95467 116.936 6.66133 116.542 6.448C116.158 6.23467 115.72 6.128 115.23 6.128ZM114.766 1.008H115.614V3.648H114.766V1.008ZM131.325 6.176H134.285V6.912H131.325V6.176ZM128.909 2.288H129.597V5.2C129.597 5.904 129.506 6.592 129.325 7.264C129.154 7.936 128.914 8.57067 128.605 9.168C128.306 9.76533 127.943 10.304 127.517 10.784C127.101 11.2533 126.653 11.6373 126.173 11.936L125.597 11.28C126.066 11.0133 126.498 10.6667 126.893 10.24C127.298 9.80267 127.65 9.312 127.949 8.768C128.258 8.21333 128.493 7.632 128.653 7.024C128.823 6.416 128.909 5.808 128.909 5.2V2.288ZM129.036 2.288H129.725V5.168C129.725 5.73333 129.799 6.304 129.949 6.88C130.109 7.456 130.333 8.00533 130.621 8.528C130.909 9.04 131.245 9.50933 131.629 9.936C132.023 10.3627 132.45 10.704 132.909 10.96L132.381 11.616C131.89 11.328 131.442 10.9547 131.037 10.496C130.631 10.0373 130.279 9.52 129.981 8.944C129.682 8.35733 129.447 7.744 129.277 7.104C129.117 6.464 129.036 5.81867 129.036 5.168V2.288ZM136.909 0.879999H137.741V15.136H136.909V0.879999ZM134.013 1.232H134.829V14.384H134.013V1.232ZM143.787 8.272H144.619V12.704H143.787V8.272ZM149.099 8.272H149.963V12.704H149.099V8.272ZM140.411 12.48H153.355V13.216H140.411V12.48ZM146.843 1.904C147.846 1.904 148.726 2.05333 149.483 2.352C150.251 2.64 150.854 3.05067 151.291 3.584C151.729 4.11733 151.947 4.74667 151.947 5.472C151.947 6.18667 151.729 6.816 151.291 7.36C150.854 7.89333 150.251 8.30933 149.483 8.608C148.726 8.896 147.846 9.04 146.843 9.04C145.862 9.04 144.987 8.896 144.219 8.608C143.451 8.30933 142.849 7.89333 142.411 7.36C141.974 6.816 141.755 6.18667 141.755 5.472C141.755 4.74667 141.974 4.11733 142.411 3.584C142.849 3.05067 143.451 2.64 144.219 2.352C144.987 2.05333 145.862 1.904 146.843 1.904ZM146.843 2.592C146.033 2.592 145.302 2.71467 144.651 2.96C144.001 3.20533 143.489 3.54667 143.115 3.984C142.742 4.41067 142.555 4.90667 142.555 5.472C142.555 6.03733 142.742 6.53333 143.115 6.96C143.489 7.38667 144.001 7.72267 144.651 7.968C145.302 8.21333 146.033 8.336 146.843 8.336C147.675 8.336 148.411 8.21333 149.051 7.968C149.702 7.72267 150.214 7.38667 150.587 6.96C150.961 6.53333 151.147 6.03733 151.147 5.472C151.147 4.90667 150.961 4.41067 150.587 3.984C150.214 3.54667 149.702 3.20533 149.051 2.96C148.411 2.71467 147.675 2.592 146.843 2.592ZM158.122 17.088C157.397 15.9147 156.826 14.6773 156.41 13.376C155.994 12.064 155.786 10.6293 155.786 9.072C155.786 7.51467 155.994 6.08533 156.41 4.784C156.826 3.472 157.397 2.224 158.122 1.04L158.682 1.344C157.989 2.464 157.466 3.68533 157.114 5.008C156.773 6.33067 156.602 7.68533 156.602 9.072C156.602 10.4587 156.773 11.8133 157.114 13.136C157.466 14.4587 157.989 15.68 158.682 16.8L158.122 17.088ZM167.521 4.432H171.281V5.184H167.521V4.432ZM163.953 1.728H164.657V3.616C164.657 4.50133 164.481 5.328 164.129 6.096C163.777 6.85333 163.297 7.52 162.689 8.096C162.092 8.66133 161.43 9.104 160.705 9.424L160.257 8.72C160.758 8.528 161.228 8.26133 161.665 7.92C162.113 7.57867 162.508 7.184 162.849 6.736C163.19 6.27733 163.457 5.78667 163.649 5.264C163.852 4.74133 163.953 4.192 163.953 3.616V1.728ZM164.081 1.728H164.785V3.68C164.785 4.20267 164.876 4.70933 165.057 5.2C165.249 5.68 165.516 6.128 165.857 6.544C166.198 6.96 166.588 7.33333 167.025 7.664C167.462 7.984 167.921 8.23467 168.401 8.416L167.937 9.088C167.233 8.8 166.588 8.38933 166.001 7.856C165.425 7.32267 164.961 6.69867 164.609 5.984C164.257 5.26933 164.081 4.50133 164.081 3.68V1.728ZM170.929 0.895999H171.793V11.632H170.929V0.895999ZM162.801 14.048H172.145V14.784H162.801V14.048ZM162.801 10.384H163.649V14.304H162.801V10.384ZM175.6 7.888H176.464C177.242 7.888 177.925 7.88267 178.512 7.872C179.109 7.85067 179.664 7.808 180.176 7.744C180.688 7.66933 181.205 7.57867 181.728 7.472L181.84 8.208C181.296 8.31467 180.762 8.40533 180.24 8.48C179.717 8.544 179.152 8.58667 178.544 8.608C177.946 8.61867 177.253 8.624 176.464 8.624H175.6V7.888ZM175.6 1.968H181.04V2.688H176.432V8.272H175.6V1.968ZM176.144 4.832H180.88V5.552H176.144V4.832ZM186.016 0.879999H186.832V9.488H186.016V0.879999ZM183.344 4.736H186.304V5.472H183.344V4.736ZM182.816 1.152H183.632V9.408H182.816V1.152ZM177.424 10.32H186.832V15.136H186V11.056H177.424V10.32ZM189.902 17.088L189.326 16.8C190.02 15.68 190.542 14.4587 190.894 13.136C191.246 11.8133 191.422 10.4587 191.422 9.072C191.422 7.68533 191.246 6.33067 190.894 5.008C190.542 3.68533 190.02 2.464 189.326 1.344L189.902 1.04C190.638 2.224 191.209 3.472 191.614 4.784C192.03 6.08533 192.238 7.51467 192.238 9.072C192.238 10.6293 192.03 12.064 191.614 13.376C191.209 14.6773 190.638 15.9147 189.902 17.088Z" fill="#BEBEBE"/>
</svg>
