<svg width="197" height="16" viewBox="0 0 197 16" fill="none" xmlns="http://www.w3.org/2000/svg">
<path d="M11.064 0.879999H11.912V15.136H11.064V0.879999ZM8.344 6.736H11.32V7.472H8.344V6.736ZM7.816 1.232H8.616V14.368H7.816V1.232ZM0.472 10.704H1.352C2.12 10.704 2.79733 10.6933 3.384 10.672C3.98133 10.6507 4.54133 10.608 5.064 10.544C5.59733 10.48 6.13067 10.384 6.664 10.256L6.776 10.992C6.21067 11.12 5.66133 11.216 5.128 11.28C4.59467 11.344 4.024 11.3867 3.416 11.408C2.81867 11.4293 2.13067 11.44 1.352 11.44H0.472V10.704ZM0.472 2.656H5.784V3.376H1.32V11.008H0.472V2.656ZM22.1188 4.96H25.8948V5.68H22.1188V4.96ZM25.3508 0.895999H26.2148V11.376H25.3508V0.895999ZM17.3028 14.048H26.6468V14.784H17.3028V14.048ZM17.3028 10.416H18.1508V14.336H17.3028V10.416ZM18.4388 2.592H19.1588V3.904C19.1588 4.74667 18.9774 5.536 18.6148 6.272C18.2521 6.99733 17.7668 7.62667 17.1588 8.16C16.5614 8.69333 15.9054 9.10933 15.1908 9.408L14.7268 8.72C15.2281 8.528 15.6974 8.27733 16.1348 7.968C16.5828 7.648 16.9774 7.28 17.3188 6.864C17.6708 6.43733 17.9428 5.97333 18.1348 5.472C18.3374 4.97067 18.4388 4.448 18.4388 3.904V2.592ZM18.5828 2.592H19.3028V3.888C19.3028 4.53867 19.4628 5.16267 19.7828 5.76C20.1134 6.34667 20.5508 6.86933 21.0948 7.328C21.6494 7.776 22.2521 8.12267 22.9028 8.368L22.4388 9.04C21.7348 8.76267 21.0894 8.37333 20.5028 7.872C19.9268 7.36 19.4628 6.76267 19.1108 6.08C18.7588 5.39733 18.5828 4.66667 18.5828 3.888V2.592ZM15.0468 2.16H22.6308V2.896H15.0468V2.16ZM30.1815 1.84H36.6135V2.56H30.1815V1.84ZM32.5655 4.864H33.3975V8.208H32.5655V4.864ZM36.2615 1.84H37.0935V2.512C37.0935 2.93867 37.0775 3.48267 37.0455 4.144C37.0135 4.79467 36.8962 5.55733 36.6935 6.432L35.8455 6.352C36.0482 5.46667 36.1655 4.71467 36.1975 4.096C36.2402 3.46667 36.2615 2.93867 36.2615 2.512V1.84ZM39.3815 0.879999H40.2455V9.904H39.3815V0.879999ZM39.7655 4.992H42.4855V5.728H39.7655V4.992ZM29.4135 8.688L29.2855 7.92C30.1602 7.92 31.1095 7.91467 32.1335 7.904C33.1682 7.88267 34.2135 7.84 35.2695 7.776C36.3362 7.70133 37.3548 7.6 38.3255 7.472L38.3895 8.128C37.3975 8.27733 36.3735 8.39467 35.3175 8.48C34.2615 8.56533 33.2268 8.624 32.2135 8.656C31.2002 8.67733 30.2668 8.688 29.4135 8.688ZM35.7655 10.08C36.7362 10.08 37.5628 10.1813 38.2455 10.384C38.9282 10.576 39.4562 10.8587 39.8295 11.232C40.2028 11.5947 40.3895 12.0427 40.3895 12.576C40.3895 13.1093 40.2028 13.5627 39.8295 13.936C39.4562 14.3093 38.9282 14.592 38.2455 14.784C37.5628 14.9867 36.7362 15.088 35.7655 15.088C34.8162 15.088 33.9948 14.9867 33.3015 14.784C32.6188 14.592 32.0908 14.3093 31.7175 13.936C31.3548 13.5627 31.1735 13.1093 31.1735 12.576C31.1735 12.0427 31.3548 11.5947 31.7175 11.232C32.0908 10.8587 32.6188 10.576 33.3015 10.384C33.9948 10.1813 34.8162 10.08 35.7655 10.08ZM35.7655 10.784C34.6242 10.784 33.7122 10.944 33.0295 11.264C32.3468 11.584 32.0055 12.0213 32.0055 12.576C32.0055 13.1307 32.3468 13.5733 33.0295 13.904C33.7122 14.224 34.6242 14.384 35.7655 14.384C36.9175 14.384 37.8295 14.224 38.5015 13.904C39.1842 13.5733 39.5255 13.1307 39.5255 12.576C39.5255 12.0213 39.1842 11.584 38.5015 11.264C37.8295 10.944 36.9175 10.784 35.7655 10.784ZM50.6443 3.088H55.0763V3.808H50.6443V3.088ZM50.6443 6.336H55.0763V7.072H50.6443V6.336ZM46.2603 10.144H55.6523V15.136H54.7883V10.848H46.2603V10.144ZM54.7883 0.879999H55.6523V9.264H54.7883V0.879999ZM47.9083 1.712C48.6016 1.712 49.2203 1.856 49.7643 2.144C50.3083 2.42133 50.7349 2.816 51.0443 3.328C51.3643 3.82933 51.5243 4.41067 51.5243 5.072C51.5243 5.73333 51.3643 6.32 51.0443 6.832C50.7349 7.33333 50.3083 7.728 49.7643 8.016C49.2203 8.29333 48.6016 8.432 47.9083 8.432C47.2149 8.432 46.5963 8.29333 46.0523 8.016C45.5083 7.728 45.0763 7.33333 44.7563 6.832C44.4469 6.32 44.2923 5.73333 44.2923 5.072C44.2923 4.41067 44.4469 3.82933 44.7563 3.328C45.0763 2.816 45.5083 2.42133 46.0523 2.144C46.5963 1.856 47.2149 1.712 47.9083 1.712ZM47.9083 2.448C47.3749 2.448 46.8949 2.56533 46.4683 2.8C46.0523 3.03467 45.7216 3.34933 45.4763 3.744C45.2309 4.13867 45.1083 4.58133 45.1083 5.072C45.1083 5.57333 45.2309 6.02133 45.4763 6.416C45.7216 6.81067 46.0523 7.12533 46.4683 7.36C46.8949 7.584 47.3749 7.696 47.9083 7.696C48.4416 7.696 48.9163 7.584 49.3323 7.36C49.7589 7.12533 50.0896 6.81067 50.3243 6.416C50.5696 6.02133 50.6923 5.57333 50.6923 5.072C50.6923 4.58133 50.5696 4.13867 50.3243 3.744C50.0896 3.34933 49.7589 3.03467 49.3323 2.8C48.9163 2.56533 48.4416 2.448 47.9083 2.448ZM62.691 2.192H63.411V5.04C63.411 5.79733 63.2937 6.53867 63.059 7.264C62.835 7.97867 62.5257 8.65067 62.131 9.28C61.7363 9.90933 61.2937 10.464 60.803 10.944C60.3123 11.424 59.811 11.8027 59.299 12.08L58.739 11.376C59.219 11.1413 59.6937 10.8053 60.163 10.368C60.6323 9.92 61.0537 9.41333 61.427 8.848C61.811 8.272 62.115 7.65867 62.339 7.008C62.5737 6.35733 62.691 5.70133 62.691 5.04V2.192ZM62.803 2.192H63.523V5.04C63.523 5.69067 63.635 6.33067 63.859 6.96C64.0937 7.57867 64.403 8.17067 64.787 8.736C65.171 9.29067 65.5977 9.776 66.067 10.192C66.5363 10.608 67.011 10.9333 67.491 11.168L66.947 11.84C66.4457 11.584 65.9497 11.2267 65.459 10.768C64.9683 10.2987 64.5203 9.76 64.115 9.152C63.7203 8.544 63.4003 7.89333 63.155 7.2C62.9203 6.496 62.803 5.776 62.803 5.04V2.192ZM69.475 0.863999H70.323V15.152H69.475V0.863999ZM80.573 9.584H81.437V15.136H80.573V9.584ZM85.453 9.584H86.317V15.136H85.453V9.584ZM76.989 9.104H89.933V9.84H76.989V9.104ZM83.437 1.504C84.4183 1.504 85.2717 1.632 85.997 1.888C86.733 2.13333 87.3037 2.48533 87.709 2.944C88.125 3.392 88.333 3.93067 88.333 4.56C88.333 5.17867 88.125 5.71733 87.709 6.176C87.3037 6.63467 86.733 6.992 85.997 7.248C85.2717 7.49333 84.4183 7.616 83.437 7.616C82.4663 7.616 81.613 7.49333 80.877 7.248C80.141 6.992 79.5703 6.63467 79.165 6.176C78.7597 5.71733 78.557 5.17867 78.557 4.56C78.557 3.93067 78.7597 3.392 79.165 2.944C79.5703 2.48533 80.141 2.13333 80.877 1.888C81.613 1.632 82.4663 1.504 83.437 1.504ZM83.437 2.192C82.6583 2.192 81.965 2.29333 81.357 2.496C80.749 2.69867 80.2743 2.976 79.933 3.328C79.5917 3.68 79.421 4.09067 79.421 4.56C79.421 5.01867 79.5917 5.42933 79.933 5.792C80.2743 6.144 80.749 6.416 81.357 6.608C81.965 6.8 82.6583 6.896 83.437 6.896C84.237 6.896 84.9357 6.8 85.533 6.608C86.1303 6.416 86.5997 6.144 86.941 5.792C87.2823 5.42933 87.453 5.01867 87.453 4.56C87.453 4.09067 87.2823 3.68 86.941 3.328C86.5997 2.976 86.1303 2.69867 85.533 2.496C84.9357 2.29333 84.237 2.192 83.437 2.192ZM95.4998 1.712H96.2038V3.296C96.2038 4.192 96.0278 5.01867 95.6758 5.776C95.3238 6.52267 94.8491 7.17333 94.2518 7.728C93.6544 8.272 92.9878 8.69333 92.2518 8.992L91.7878 8.288C92.4704 8.032 93.0891 7.664 93.6438 7.184C94.2091 6.69333 94.6571 6.11733 94.9878 5.456C95.3291 4.79467 95.4998 4.07467 95.4998 3.296V1.712ZM95.6118 1.712H96.3158V3.28C96.3158 3.97333 96.4811 4.62933 96.8118 5.248C97.1531 5.856 97.6011 6.39467 98.1558 6.864C98.7211 7.32267 99.3291 7.66933 99.9798 7.904L99.4838 8.576C98.7798 8.288 98.1344 7.888 97.5478 7.376C96.9611 6.864 96.4918 6.26133 96.1398 5.568C95.7878 4.864 95.6118 4.10133 95.6118 3.28V1.712ZM102.476 0.879999H103.34V9.376H102.476V0.879999ZM98.7318 9.808C100.182 9.808 101.324 10.0427 102.156 10.512C102.988 10.9813 103.404 11.632 103.404 12.464C103.404 13.296 102.988 13.9413 102.156 14.4C101.324 14.8587 100.182 15.088 98.7318 15.088C97.2811 15.088 96.1398 14.8587 95.3078 14.4C94.4758 13.9413 94.0598 13.296 94.0598 12.464C94.0598 11.632 94.4758 10.9813 95.3078 10.512C96.1398 10.0427 97.2811 9.808 98.7318 9.808ZM98.7318 10.528C97.9531 10.528 97.2758 10.608 96.6998 10.768C96.1344 10.9173 95.6918 11.1413 95.3718 11.44C95.0518 11.728 94.8918 12.0693 94.8918 12.464C94.8918 12.848 95.0518 13.184 95.3718 13.472C95.6918 13.76 96.1344 13.984 96.6998 14.144C97.2758 14.304 97.9531 14.384 98.7318 14.384C99.5104 14.384 100.182 14.304 100.748 14.144C101.324 13.984 101.766 13.76 102.076 13.472C102.396 13.184 102.556 12.848 102.556 12.464C102.556 12.0693 102.396 11.728 102.076 11.44C101.766 11.1413 101.324 10.9173 100.748 10.768C100.182 10.608 99.5104 10.528 98.7318 10.528ZM99.0838 4.144H102.748V4.88H99.0838V4.144ZM108.155 1.856H117.051V2.576H108.155V1.856ZM106.443 8.016H119.339V8.752H106.443V8.016ZM112.459 8.464H113.307V15.152H112.459V8.464ZM116.683 1.856H117.515V3.088C117.515 3.568 117.504 4.08 117.483 4.624C117.472 5.15733 117.429 5.744 117.355 6.384C117.291 7.01333 117.173 7.72267 117.003 8.512L116.139 8.368C116.416 7.23733 116.576 6.25067 116.619 5.408C116.661 4.56533 116.683 3.792 116.683 3.088V1.856ZM135.877 0.879999H136.725V15.136H135.877V0.879999ZM133.157 6.736H136.133V7.472H133.157V6.736ZM132.628 1.232H133.429V14.368H132.628V1.232ZM125.285 10.704H126.164C126.933 10.704 127.61 10.6933 128.197 10.672C128.794 10.6507 129.354 10.608 129.877 10.544C130.41 10.48 130.943 10.384 131.477 10.256L131.589 10.992C131.023 11.12 130.474 11.216 129.941 11.28C129.407 11.344 128.837 11.3867 128.229 11.408C127.631 11.4293 126.943 11.44 126.164 11.44H125.285V10.704ZM125.285 2.656H130.597V3.376H126.133V11.008H125.285V2.656ZM139.475 2.544H147.923V3.264H139.475V2.544ZM143.699 4.176C144.371 4.176 144.958 4.28267 145.459 4.496C145.961 4.69867 146.35 4.98667 146.627 5.36C146.905 5.73333 147.043 6.18667 147.043 6.72C147.043 7.232 146.905 7.68 146.627 8.064C146.35 8.43733 145.961 8.73067 145.459 8.944C144.958 9.14667 144.371 9.248 143.699 9.248C143.027 9.248 142.435 9.14667 141.923 8.944C141.422 8.73067 141.027 8.43733 140.739 8.064C140.462 7.68 140.323 7.232 140.323 6.72C140.323 6.18667 140.462 5.73333 140.739 5.36C141.027 4.98667 141.422 4.69867 141.923 4.496C142.435 4.28267 143.027 4.176 143.699 4.176ZM143.699 4.864C142.931 4.864 142.313 5.03467 141.843 5.376C141.374 5.71733 141.139 6.16533 141.139 6.72C141.139 7.264 141.374 7.70667 141.843 8.048C142.313 8.37867 142.931 8.544 143.699 8.544C144.457 8.544 145.065 8.37867 145.523 8.048C145.993 7.70667 146.227 7.264 146.227 6.72C146.227 6.16533 145.993 5.71733 145.523 5.376C145.065 5.03467 144.457 4.864 143.699 4.864ZM149.539 0.879999H150.387V9.776H149.539V0.879999ZM150.163 4.96H152.627V5.696H150.163V4.96ZM141.283 10.656H150.387V15.136H149.539V11.392H141.283V10.656ZM143.267 0.799999H144.131V2.928H143.267V0.799999ZM154.13 12.528H167.074V13.264H154.13V12.528ZM160.146 9.264H160.994V12.848H160.146V9.264ZM155.778 2.016H165.378V6.08H156.658V9.2H155.826V5.36H164.546V2.736H155.778V2.016ZM155.826 8.816H165.714V9.536H155.826V8.816ZM172.22 14V13.424C173.543 12.2933 174.604 11.264 175.404 10.336C176.215 9.39733 176.807 8.53333 177.18 7.744C177.553 6.944 177.74 6.192 177.74 5.488C177.74 5.008 177.655 4.576 177.484 4.192C177.324 3.79733 177.068 3.488 176.716 3.264C176.364 3.04 175.911 2.928 175.356 2.928C174.855 2.928 174.38 3.06133 173.932 3.328C173.495 3.59467 173.105 3.94133 172.764 4.368L172.172 3.808C172.609 3.31733 173.089 2.91733 173.612 2.608C174.135 2.288 174.748 2.128 175.452 2.128C176.135 2.128 176.716 2.26667 177.196 2.544C177.676 2.82133 178.044 3.21067 178.3 3.712C178.556 4.20267 178.684 4.78933 178.684 5.472C178.684 6.28267 178.481 7.104 178.076 7.936C177.681 8.768 177.111 9.62133 176.364 10.496C175.617 11.3707 174.727 12.2933 173.692 13.264C174.012 13.2427 174.332 13.2213 174.652 13.2C174.983 13.1787 175.303 13.168 175.612 13.168H179.26V14H172.22ZM183.615 14.208C183.039 14.208 182.543 14.1067 182.127 13.904C181.721 13.6907 181.359 13.4187 181.039 13.088L181.599 12.48C181.865 12.7787 182.169 13.008 182.511 13.168C182.863 13.3173 183.236 13.392 183.631 13.392C184.047 13.392 184.447 13.296 184.831 13.104C185.215 12.9013 185.551 12.5707 185.839 12.112C186.137 11.6533 186.372 11.0507 186.543 10.304C186.713 9.54667 186.799 8.61867 186.799 7.52C186.799 6.592 186.692 5.78133 186.479 5.088C186.276 4.384 185.961 3.84533 185.535 3.472C185.119 3.088 184.585 2.896 183.935 2.896C183.529 2.896 183.156 3.024 182.815 3.28C182.484 3.536 182.217 3.888 182.015 4.336C181.823 4.784 181.727 5.29067 181.727 5.856C181.727 6.41067 181.807 6.912 181.967 7.36C182.137 7.79733 182.393 8.144 182.735 8.4C183.087 8.656 183.535 8.784 184.079 8.784C184.505 8.784 184.959 8.64533 185.439 8.368C185.919 8.08 186.383 7.62133 186.831 6.992L186.863 7.904C186.607 8.21333 186.324 8.49067 186.015 8.736C185.705 8.98133 185.375 9.17333 185.023 9.312C184.681 9.45067 184.324 9.52 183.951 9.52C183.3 9.52 182.74 9.38133 182.271 9.104C181.801 8.816 181.439 8.4 181.183 7.856C180.927 7.312 180.799 6.64533 180.799 5.856C180.799 5.13067 180.943 4.48533 181.231 3.92C181.529 3.35467 181.913 2.91733 182.383 2.608C182.863 2.288 183.391 2.128 183.967 2.128C184.532 2.128 185.044 2.24533 185.503 2.48C185.961 2.71467 186.351 3.06133 186.671 3.52C187.001 3.968 187.257 4.528 187.439 5.2C187.62 5.872 187.711 6.64533 187.711 7.52C187.711 8.75733 187.599 9.80267 187.375 10.656C187.151 11.5093 186.841 12.1973 186.447 12.72C186.063 13.2427 185.625 13.6213 185.135 13.856C184.655 14.0907 184.148 14.208 183.615 14.208ZM190.097 14V13.184H192.753V3.712H190.689V3.072C191.169 2.98667 191.59 2.88533 191.953 2.768C192.326 2.64 192.652 2.496 192.929 2.336H193.681V13.184H196.113V14H190.097Z" fill="black"/>
</svg>
