<svg width="28" height="16" viewBox="0 0 28 16" fill="none" xmlns="http://www.w3.org/2000/svg">
<path d="M5.456 1.184C6.20267 1.184 6.86933 1.32267 7.456 1.6C8.04267 1.86667 8.50133 2.24 8.832 2.72C9.17333 3.18933 9.344 3.73333 9.344 4.352C9.344 4.97067 9.17333 5.52 8.832 6C8.50133 6.46933 8.04267 6.84267 7.456 7.12C6.86933 7.38667 6.20267 7.52 5.456 7.52C4.70933 7.52 4.04267 7.38667 3.456 7.12C2.86933 6.84267 2.40533 6.46933 2.064 6C1.73333 5.52 1.568 4.97067 1.568 4.352C1.568 3.73333 1.73333 3.18933 2.064 2.72C2.40533 2.24 2.86933 1.86667 3.456 1.6C4.04267 1.32267 4.70933 1.184 5.456 1.184ZM5.456 2.912C5.104 2.912 4.78933 2.97067 4.512 3.088C4.23467 3.19467 4.016 3.35467 3.856 3.568C3.696 3.78133 3.616 4.04267 3.616 4.352C3.616 4.66133 3.696 4.92267 3.856 5.136C4.016 5.33867 4.23467 5.49867 4.512 5.616C4.78933 5.72267 5.104 5.776 5.456 5.776C5.81867 5.776 6.13867 5.72267 6.416 5.616C6.69333 5.49867 6.912 5.33867 7.072 5.136C7.232 4.92267 7.312 4.66133 7.312 4.352C7.312 4.04267 7.232 3.78133 7.072 3.568C6.912 3.35467 6.69333 3.19467 6.416 3.088C6.13867 2.97067 5.81867 2.912 5.456 2.912ZM4.448 9.008H6.592V14.96H4.448V9.008ZM10.928 0.591999H13.056V15.408H10.928V0.591999ZM0.944 10.128L0.704 8.4C1.55733 8.4 2.512 8.39467 3.568 8.384C4.63467 8.36267 5.728 8.31467 6.848 8.24C7.968 8.16533 9.05067 8.048 10.096 7.888L10.224 9.44C9.15733 9.65333 8.07467 9.808 6.976 9.904C5.87733 10 4.81067 10.0587 3.776 10.08C2.74133 10.1013 1.79733 10.1173 0.944 10.128ZM25.5348 0.591999H27.6788V15.408H25.5348V0.591999ZM19.0068 4.448H20.7028V5.216C20.7028 5.99467 20.6121 6.768 20.4308 7.536C20.2601 8.29333 19.9988 9.008 19.6468 9.68C19.3054 10.352 18.8734 10.9493 18.3508 11.472C17.8388 11.984 17.2468 12.3893 16.5748 12.688L15.4388 11.04C16.0468 10.7733 16.5694 10.4267 17.0068 10C17.4548 9.56267 17.8281 9.08267 18.1268 8.56C18.4254 8.03733 18.6441 7.488 18.7828 6.912C18.9321 6.336 19.0068 5.77067 19.0068 5.216V4.448ZM19.4868 4.448H21.1348V5.216C21.1348 5.73867 21.2094 6.27733 21.3588 6.832C21.5081 7.38667 21.7321 7.92 22.0308 8.432C22.3294 8.93333 22.7028 9.392 23.1508 9.808C23.6094 10.2133 24.1428 10.5493 24.7508 10.816L23.6308 12.432C22.9481 12.1547 22.3454 11.7653 21.8228 11.264C21.3108 10.7627 20.8788 10.1867 20.5268 9.536C20.1748 8.88533 19.9134 8.192 19.7428 7.456C19.5721 6.72 19.4868 5.97333 19.4868 5.216V4.448ZM15.9348 3.008H24.1588V4.688H15.9348V3.008ZM19.0068 0.943999H21.1508V3.888H19.0068V0.943999Z" fill="black"/>
</svg>
