<svg width="62" height="16" viewBox="0 0 62 16" fill="none" xmlns="http://www.w3.org/2000/svg">
<path d="M7.264 9.824C8.33067 9.824 9.25867 9.936 10.048 10.16C10.8373 10.384 11.4453 10.704 11.872 11.12C12.3093 11.536 12.528 12.0373 12.528 12.624C12.528 13.2 12.3093 13.696 11.872 14.112C11.4453 14.5387 10.8373 14.864 10.048 15.088C9.25867 15.312 8.33067 15.424 7.264 15.424C6.208 15.424 5.28533 15.312 4.496 15.088C3.70667 14.864 3.09333 14.5387 2.656 14.112C2.22933 13.696 2.016 13.2 2.016 12.624C2.016 12.0373 2.22933 11.536 2.656 11.12C3.09333 10.704 3.70667 10.384 4.496 10.16C5.28533 9.936 6.208 9.824 7.264 9.824ZM7.264 11.424C6.60267 11.424 6.03733 11.4667 5.568 11.552C5.09867 11.6373 4.74133 11.7707 4.496 11.952C4.26133 12.1333 4.144 12.3573 4.144 12.624C4.144 12.8907 4.26133 13.1147 4.496 13.296C4.74133 13.4667 5.09867 13.6 5.568 13.696C6.03733 13.7813 6.60267 13.824 7.264 13.824C7.936 13.824 8.50667 13.7813 8.976 13.696C9.44533 13.6 9.80267 13.4667 10.048 13.296C10.2933 13.1147 10.416 12.8907 10.416 12.624C10.416 12.3573 10.2933 12.1333 10.048 11.952C9.80267 11.7707 9.44533 11.6373 8.976 11.552C8.50667 11.4667 7.936 11.424 7.264 11.424ZM2.176 1.264H11.568V2.928H2.176V1.264ZM0.688 7.216H14.016V8.896H0.688V7.216ZM5.616 4.624H7.744V7.632H5.616V4.624ZM10.32 1.264H12.448V2.48C12.448 3.06667 12.432 3.68 12.4 4.32C12.368 4.96 12.2453 5.664 12.032 6.432L9.92 6.224C10.1227 5.46667 10.24 4.79467 10.272 4.208C10.304 3.62133 10.32 3.04533 10.32 2.48V1.264ZM26.0308 0.591999H28.0468V15.408H26.0308V0.591999ZM24.1428 6.176H26.6068V7.888H24.1428V6.176ZM19.7268 2.416H21.7748C21.7748 3.46133 21.6841 4.45333 21.5028 5.392C21.3321 6.33067 21.0441 7.22133 20.6388 8.064C20.2334 8.896 19.6841 9.67467 18.9908 10.4C18.3081 11.1147 17.4494 11.776 16.4148 12.384L15.1828 10.896C16.3028 10.2347 17.1934 9.50933 17.8548 8.72C18.5268 7.92 19.0068 7.04 19.2948 6.08C19.5828 5.10933 19.7268 4.032 19.7268 2.848V2.416ZM15.9188 2.416H20.3508V4.112H15.9188V2.416ZM22.7348 0.976H24.7348V14.768H22.7348V0.976ZM40.3425 3.616H44.3745V5.328H40.3425V3.616ZM40.3425 8.224H44.3745V9.936H40.3425V8.224ZM37.7665 1.616C38.5025 1.616 39.1585 1.83467 39.7345 2.272C40.3212 2.69867 40.7745 3.312 41.0945 4.112C41.4252 4.90133 41.5905 5.83467 41.5905 6.912C41.5905 8 41.4252 8.944 41.0945 9.744C40.7745 10.5333 40.3212 11.1467 39.7345 11.584C39.1585 12.0107 38.5025 12.224 37.7665 12.224C37.0305 12.224 36.3745 12.0107 35.7985 11.584C35.2225 11.1467 34.7692 10.5333 34.4385 9.744C34.1078 8.944 33.9425 8 33.9425 6.912C33.9425 5.83467 34.1078 4.90133 34.4385 4.112C34.7692 3.312 35.2225 2.69867 35.7985 2.272C36.3745 1.83467 37.0305 1.616 37.7665 1.616ZM37.7665 3.552C37.4145 3.552 37.0998 3.68 36.8225 3.936C36.5558 4.192 36.3425 4.57067 36.1825 5.072C36.0332 5.56267 35.9585 6.176 35.9585 6.912C35.9585 7.63733 36.0332 8.256 36.1825 8.768C36.3425 9.26933 36.5558 9.648 36.8225 9.904C37.0998 10.16 37.4145 10.288 37.7665 10.288C38.1398 10.288 38.4598 10.16 38.7265 9.904C38.9932 9.648 39.2012 9.26933 39.3505 8.768C39.4998 8.256 39.5745 7.63733 39.5745 6.912C39.5745 6.176 39.4998 5.56267 39.3505 5.072C39.2012 4.57067 38.9932 4.192 38.7265 3.936C38.4598 3.68 38.1398 3.552 37.7665 3.552ZM44.0225 0.575999H46.1505V15.44H44.0225V0.575999ZM48.4373 9.12H61.8453V10.8H48.4373V9.12ZM54.0213 9.968H56.1493V15.424H54.0213V9.968ZM49.9573 1.168H52.0693V2.848H58.1653V1.168H60.2613V7.712H49.9573V1.168ZM52.0693 4.512V6.032H58.1653V4.512H52.0693Z" fill="black"/>
</svg>
