<svg width="28" height="16" viewBox="0 0 28 16" fill="none" xmlns="http://www.w3.org/2000/svg">
<path d="M7.07725 9.984C8.06925 9.984 8.92258 10.0853 9.63725 10.288C10.3626 10.4907 10.9226 10.7787 11.3173 11.152C11.7119 11.5253 11.9093 11.9787 11.9093 12.512C11.9093 13.0347 11.7119 13.4827 11.3173 13.856C10.9226 14.2293 10.3626 14.512 9.63725 14.704C8.92258 14.9067 8.06925 15.008 7.07725 15.008C6.09592 15.008 5.24258 14.9067 4.51725 14.704C3.79192 14.512 3.23192 14.2293 2.83725 13.856C2.45325 13.4827 2.26125 13.0347 2.26125 12.512C2.26125 11.9787 2.45325 11.5253 2.83725 11.152C3.23192 10.7787 3.79192 10.4907 4.51725 10.288C5.24258 10.0853 6.09592 9.984 7.07725 9.984ZM7.07725 10.448C6.23458 10.448 5.48792 10.5333 4.83725 10.704C4.19725 10.8747 3.69058 11.1147 3.31725 11.424C2.95458 11.7333 2.77325 12.096 2.77325 12.512C2.77325 12.9067 2.95458 13.2587 3.31725 13.568C3.69058 13.8773 4.19725 14.1173 4.83725 14.288C5.48792 14.4587 6.23458 14.544 7.07725 14.544C7.93058 14.544 8.67725 14.4587 9.31725 14.288C9.96792 14.1173 10.4746 13.8773 10.8373 13.568C11.1999 13.2587 11.3813 12.9067 11.3813 12.512C11.3813 12.096 11.1999 11.7333 10.8373 11.424C10.4746 11.1147 9.96792 10.8747 9.31725 10.704C8.67725 10.5333 7.93058 10.448 7.07725 10.448ZM2.30925 1.744H11.5573V2.224H2.30925V1.744ZM0.72525 7.808H13.4773V8.272H0.72525V7.808ZM6.50125 4.816H7.01325V8H6.50125V4.816ZM11.2533 1.744H11.7493V2.976C11.7493 3.56267 11.7333 4.14933 11.7013 4.736C11.6693 5.312 11.5573 5.96267 11.3653 6.688L10.8693 6.608C11.0613 5.88267 11.1733 5.23733 11.2053 4.672C11.2373 4.096 11.2533 3.53067 11.2533 2.976V1.744ZM26.756 0.943999H27.284V15.072H26.756V0.943999ZM23.956 6.992H27.06V7.472H23.956V6.992ZM20.9 2.864H21.412C21.412 3.67467 21.316 4.496 21.124 5.328C20.9427 6.16 20.6387 6.976 20.212 7.776C19.796 8.56533 19.236 9.312 18.532 10.016C17.8387 10.7093 16.98 11.3387 15.956 11.904L15.636 11.488C16.9373 10.7947 17.972 9.984 18.74 9.056C19.508 8.11733 20.0573 7.12 20.388 6.064C20.7293 5.008 20.9 3.95733 20.9 2.912V2.864ZM16.004 2.864H21.156V3.344H16.004V2.864ZM23.62 1.328H24.148V14.288H23.62V1.328Z" fill="black"/>
</svg>
