<svg width="41" height="16" viewBox="0 0 41 16" fill="none" xmlns="http://www.w3.org/2000/svg">
<path d="M10.2299 0.943999H10.7419V15.072H10.2299V0.943999ZM0.277875 2.224H0.805875V6.256H6.10188V2.224H6.62988V11.552H0.277875V2.224ZM0.805875 6.72V11.072H6.10188V6.72H0.805875ZM20.4366 9.984C21.4286 9.984 22.282 10.0853 22.9966 10.288C23.722 10.4907 24.282 10.7787 24.6766 11.152C25.0713 11.5253 25.2686 11.9787 25.2686 12.512C25.2686 13.0347 25.0713 13.4827 24.6766 13.856C24.282 14.2293 23.722 14.512 22.9966 14.704C22.282 14.9067 21.4286 15.008 20.4366 15.008C19.4553 15.008 18.602 14.9067 17.8766 14.704C17.1513 14.512 16.5913 14.2293 16.1966 13.856C15.8126 13.4827 15.6206 13.0347 15.6206 12.512C15.6206 11.9787 15.8126 11.5253 16.1966 11.152C16.5913 10.7787 17.1513 10.4907 17.8766 10.288C18.602 10.0853 19.4553 9.984 20.4366 9.984ZM20.4366 10.448C19.594 10.448 18.8473 10.5333 18.1966 10.704C17.5566 10.8747 17.05 11.1147 16.6766 11.424C16.314 11.7333 16.1326 12.096 16.1326 12.512C16.1326 12.9067 16.314 13.2587 16.6766 13.568C17.05 13.8773 17.5566 14.1173 18.1966 14.288C18.8473 14.4587 19.594 14.544 20.4366 14.544C21.29 14.544 22.0366 14.4587 22.6766 14.288C23.3273 14.1173 23.834 13.8773 24.1966 13.568C24.5593 13.2587 24.7406 12.9067 24.7406 12.512C24.7406 12.096 24.5593 11.7333 24.1966 11.424C23.834 11.1147 23.3273 10.8747 22.6766 10.704C22.0366 10.5333 21.29 10.448 20.4366 10.448ZM15.6686 1.744H24.9166V2.224H15.6686V1.744ZM14.0846 7.808H26.8366V8.272H14.0846V7.808ZM19.8606 4.816H20.3726V8H19.8606V4.816ZM24.6126 1.744H25.1086V2.976C25.1086 3.56267 25.0926 4.14933 25.0606 4.736C25.0286 5.312 24.9166 5.96267 24.7246 6.688L24.2286 6.608C24.4206 5.88267 24.5326 5.23733 24.5646 4.672C24.5966 4.096 24.6126 3.53067 24.6126 2.976V1.744ZM40.1154 0.943999H40.6434V15.072H40.1154V0.943999ZM37.3154 6.992H40.4194V7.472H37.3154V6.992ZM34.2594 2.864H34.7714C34.7714 3.67467 34.6754 4.496 34.4834 5.328C34.302 6.16 33.998 6.976 33.5714 7.776C33.1554 8.56533 32.5954 9.312 31.8914 10.016C31.198 10.7093 30.3394 11.3387 29.3154 11.904L28.9954 11.488C30.2967 10.7947 31.3314 9.984 32.0994 9.056C32.8674 8.11733 33.4167 7.12 33.7474 6.064C34.0887 5.008 34.2594 3.95733 34.2594 2.912V2.864ZM29.3634 2.864H34.5154V3.344H29.3634V2.864ZM36.9794 1.328H37.5074V14.288H36.9794V1.328Z" fill="black"/>
</svg>
