<svg width="59" height="16" viewBox="0 0 59 16" fill="none" xmlns="http://www.w3.org/2000/svg">
<path d="M10.2287 6.88H12.9487V7.36H10.2287V6.88ZM9.86069 0.943999H10.3887V15.072H9.86069V0.943999ZM0.452688 2.368H0.964688V11.088H0.452688V2.368ZM0.452688 10.896H1.47669C2.55402 10.896 3.63135 10.848 4.70869 10.752C5.79669 10.656 6.93802 10.48 8.13269 10.224L8.22869 10.704C6.99135 10.9493 5.83402 11.12 4.75669 11.216C3.67935 11.312 2.58602 11.36 1.47669 11.36H0.452688V10.896ZM15.2354 2.336H21.4754V8.576H15.2354V2.336ZM20.9794 2.8H15.7314V8.112H20.9794V2.8ZM24.7394 0.927999H25.2674V11.344H24.7394V0.927999ZM25.0434 5.472H27.5714V5.936H25.0434V5.472ZM16.8034 14.208H26.0354V14.688H16.8034V14.208ZM16.8034 10.384H17.3154V14.288H16.8034V10.384ZM32.7018 12.624H45.5178V13.104H32.7018V12.624ZM38.8138 8.864H39.3258V12.848H38.8138V8.864ZM34.3658 2.048H34.8938V4.928H43.3098V2.048H43.8218V9.136H34.3658V2.048ZM34.8938 5.424V8.656H43.3098V5.424H34.8938ZM58.3006 0.943999H58.8126V15.072H58.3006V0.943999ZM54.1886 2.528H54.7006C54.7006 3.488 54.5619 4.42667 54.2846 5.344C54.0072 6.26133 53.5859 7.14133 53.0206 7.984C52.4659 8.816 51.7726 9.58933 50.9406 10.304C50.1192 11.008 49.1539 11.632 48.0446 12.176L47.7406 11.728C49.1166 11.0667 50.2846 10.2613 51.2446 9.312C52.2046 8.352 52.9352 7.30133 53.4366 6.16C53.9379 5.008 54.1886 3.81333 54.1886 2.576V2.528ZM48.2846 2.528H54.3166V3.008H48.2846V2.528Z" fill="black"/>
</svg>
