<svg width="29" height="10" viewBox="0 0 29 10" fill="none" xmlns="http://www.w3.org/2000/svg">
<path d="M7.03229 0.0239995H7.39529V5.92H7.03229V0.0239995ZM7.29629 2.708H8.97929V3.038H7.29629V2.708ZM1.26829 6.525H7.39529V9.737H7.03229V6.855H1.26829V6.525ZM0.498289 0.629H0.850289V2.389H4.46929V0.629H4.81029V5.095H0.498289V0.629ZM0.850289 2.719V4.776H4.46929V2.719H0.850289ZM12.9054 1.267H13.2244V3.346C13.2244 3.808 13.1364 4.27 12.9604 4.732C12.7844 5.18667 12.5534 5.61567 12.2674 6.019C11.9888 6.42233 11.6844 6.78167 11.3544 7.097C11.0244 7.405 10.7054 7.647 10.3974 7.823L10.1664 7.526C10.4598 7.372 10.7641 7.152 11.0794 6.866C11.4021 6.57267 11.6991 6.23533 11.9704 5.854C12.2491 5.46533 12.4728 5.05833 12.6414 4.633C12.8174 4.20033 12.9054 3.77133 12.9054 3.346V1.267ZM12.9384 1.267H13.2574V3.346C13.2574 3.77133 13.3418 4.18933 13.5104 4.6C13.6864 5.01067 13.9138 5.39567 14.1924 5.755C14.4784 6.107 14.7828 6.41867 15.1054 6.69C15.4281 6.954 15.7434 7.15567 16.0514 7.295L15.8204 7.592C15.4978 7.42333 15.1678 7.19967 14.8304 6.921C14.4931 6.635 14.1814 6.305 13.8954 5.931C13.6094 5.54967 13.3784 5.14267 13.2024 4.71C13.0264 4.27 12.9384 3.81533 12.9384 3.346V1.267ZM10.4084 1.08H15.8094V1.41H10.4084V1.08ZM17.5584 0.0239995H17.9104V9.737H17.5584V0.0239995ZM20.7366 0.947999H25.0706V5.282H20.7366V0.947999ZM24.7296 1.267H21.0776V4.963H24.7296V1.267ZM27.6886 0.0349994H28.0516V7.086H27.6886V0.0349994ZM22.0566 8.967H28.4036V9.297H22.0566V8.967ZM22.0566 6.382H22.4086V9.066H22.0566V6.382Z" fill="black"/>
</svg>
