<svg width="104" height="11" viewBox="0 0 104 11" fill="none" xmlns="http://www.w3.org/2000/svg">
<path d="M7.7413 0.171999H8.3893V8.116H7.7413V0.171999ZM1.6693 10.036H8.7493V10.588H1.6693V10.036ZM1.6693 7.348H2.3053V10.288H1.6693V7.348ZM2.7733 2.164H3.3013V2.656C3.3013 3.288 3.1653 3.876 2.8933 4.42C2.6293 4.956 2.2693 5.42 1.8133 5.812C1.3653 6.204 0.869297 6.504 0.325297 6.712L-0.0107031 6.208C0.365297 6.072 0.717297 5.888 1.0453 5.656C1.3813 5.424 1.6773 5.152 1.9333 4.84C2.1973 4.528 2.4013 4.188 2.5453 3.82C2.6973 3.452 2.7733 3.064 2.7733 2.656V2.164ZM2.8693 2.164H3.3973V2.656C3.3973 3.04 3.4733 3.408 3.6253 3.76C3.7773 4.112 3.9853 4.436 4.2493 4.732C4.5133 5.02 4.8133 5.272 5.1493 5.488C5.4853 5.704 5.8413 5.876 6.2173 6.004L5.8933 6.52C5.3493 6.32 4.8453 6.036 4.3813 5.668C3.9253 5.292 3.5573 4.848 3.2773 4.336C3.0053 3.824 2.8693 3.264 2.8693 2.656V2.164ZM0.181297 1.708H5.9773V2.248H0.181297V1.708ZM2.7733 0.207999H3.4093V2.02H2.7733V0.207999ZM12.0124 0.891999H18.6844V1.432H12.0124V0.891999ZM10.7284 5.512H20.4004V6.064H10.7284V5.512ZM15.2404 5.848H15.8764V10.864H15.2404V5.848ZM18.4084 0.891999H19.0324V1.816C19.0324 2.176 19.0244 2.56 19.0084 2.968C19.0004 3.368 18.9684 3.808 18.9124 4.288C18.8644 4.76 18.7764 5.292 18.6484 5.884L18.0004 5.776C18.2084 4.928 18.3284 4.188 18.3604 3.556C18.3924 2.924 18.4084 2.344 18.4084 1.816V0.891999ZM25.0279 10V1.252H25.7479V10H25.0279ZM28.2974 10V1.252H30.3494C31.2534 1.252 32.0014 1.428 32.5934 1.78C33.1854 2.132 33.6254 2.632 33.9134 3.28C34.2094 3.928 34.3574 4.7 34.3574 5.596C34.3574 6.492 34.2134 7.272 33.9254 7.936C33.6374 8.592 33.1974 9.1 32.6054 9.46C32.0134 9.82 31.2734 10 30.3854 10H28.2974ZM29.0174 9.388H30.2774C31.0454 9.388 31.6774 9.232 32.1734 8.92C32.6694 8.6 33.0334 8.156 33.2654 7.588C33.4974 7.012 33.6134 6.348 33.6134 5.596C33.6134 4.836 33.4974 4.176 33.2654 3.616C33.0334 3.056 32.6694 2.624 32.1734 2.32C31.6774 2.016 31.0454 1.864 30.2774 1.864H29.0174V9.388ZM35.7359 5.236H45.4439V5.752H35.7359V5.236ZM36.9359 6.808H44.1959V8.944H37.5959V10.396H36.9719V8.44H43.5719V7.312H36.9359V6.808ZM36.9719 10.18H44.5679V10.684H36.9719V10.18ZM36.9959 0.543999H44.1599V2.596H37.6559V3.928H37.0319V2.104H43.5239V1.048H36.9959V0.543999ZM37.0319 3.736H44.3519V4.252H37.0319V3.736ZM57.4874 0.159999H58.1354V5.896H57.4874V0.159999ZM51.3794 6.472H52.0154V7.948H57.4994V6.472H58.1354V10.696H51.3794V6.472ZM52.0154 8.488V10.156H57.4994V8.488H52.0154ZM52.4474 0.711999C52.9754 0.711999 53.4434 0.812 53.8514 1.012C54.2594 1.212 54.5794 1.496 54.8114 1.864C55.0514 2.224 55.1714 2.648 55.1714 3.136C55.1714 3.616 55.0514 4.04 54.8114 4.408C54.5794 4.776 54.2594 5.06 53.8514 5.26C53.4434 5.46 52.9754 5.56 52.4474 5.56C51.9194 5.56 51.4514 5.46 51.0434 5.26C50.6354 5.06 50.3114 4.776 50.0714 4.408C49.8394 4.04 49.7234 3.616 49.7234 3.136C49.7234 2.648 49.8394 2.224 50.0714 1.864C50.3114 1.496 50.6354 1.212 51.0434 1.012C51.4514 0.812 51.9194 0.711999 52.4474 0.711999ZM52.4474 1.252C52.0474 1.252 51.6874 1.332 51.3674 1.492C51.0554 1.652 50.8074 1.876 50.6234 2.164C50.4474 2.452 50.3594 2.776 50.3594 3.136C50.3594 3.488 50.4474 3.808 50.6234 4.096C50.8074 4.376 51.0554 4.6 51.3674 4.768C51.6874 4.928 52.0474 5.008 52.4474 5.008C52.8554 5.008 53.2154 4.928 53.5274 4.768C53.8474 4.6 54.0954 4.376 54.2714 4.096C54.4554 3.808 54.5474 3.488 54.5474 3.136C54.5474 2.776 54.4554 2.452 54.2714 2.164C54.0954 1.876 53.8474 1.652 53.5274 1.492C53.2154 1.332 52.8554 1.252 52.4474 1.252ZM60.9545 5.584H61.6865C62.4065 5.584 63.0225 5.58 63.5345 5.572C64.0545 5.556 64.5225 5.528 64.9385 5.488C65.3625 5.448 65.7945 5.392 66.2345 5.32L66.2945 5.86C65.9585 5.916 65.6305 5.964 65.3105 6.004C64.9905 6.036 64.6545 6.06 64.3025 6.076C63.9585 6.092 63.5705 6.104 63.1385 6.112C62.7145 6.12 62.2305 6.124 61.6865 6.124H60.9545V5.584ZM60.9185 0.819999H65.4785V3.64H61.5905V5.872H60.9545V3.112H64.8425V1.36H60.9185V0.819999ZM68.5385 0.171999H69.1865V6.736H68.5385V0.171999ZM66.2465 1.816H68.7425V2.356H66.2465V1.816ZM66.2465 3.988H68.7425V4.54H66.2465V3.988ZM62.1305 7.36H69.1865V10.876H68.5385V7.9H62.1305V7.36ZM79.0015 0.159999H79.6495V10.852H79.0015V0.159999ZM79.4815 4.684H81.5215V5.236H79.4815V4.684ZM71.4535 1.936H77.8135V2.488H71.4535V1.936ZM74.7055 3.544C75.1935 3.544 75.6295 3.648 76.0135 3.856C76.3975 4.056 76.6975 4.336 76.9135 4.696C77.1295 5.056 77.2375 5.472 77.2375 5.944C77.2375 6.416 77.1295 6.836 76.9135 7.204C76.6975 7.564 76.3975 7.844 76.0135 8.044C75.6295 8.244 75.1935 8.344 74.7055 8.344C74.2095 8.344 73.7695 8.244 73.3855 8.044C73.0015 7.844 72.7015 7.564 72.4855 7.204C72.2695 6.836 72.1615 6.416 72.1615 5.944C72.1615 5.472 72.2695 5.056 72.4855 4.696C72.7015 4.336 73.0015 4.056 73.3855 3.856C73.7695 3.648 74.2095 3.544 74.7055 3.544ZM74.7055 4.096C74.3295 4.096 73.9935 4.176 73.6975 4.336C73.4095 4.496 73.1815 4.716 73.0135 4.996C72.8455 5.276 72.7615 5.592 72.7615 5.944C72.7615 6.296 72.8455 6.612 73.0135 6.892C73.1815 7.172 73.4095 7.392 73.6975 7.552C73.9935 7.712 74.3295 7.792 74.7055 7.792C75.0735 7.792 75.4015 7.712 75.6895 7.552C75.9855 7.392 76.2135 7.172 76.3735 6.892C76.5415 6.612 76.6255 6.296 76.6255 5.944C76.6255 5.592 76.5415 5.276 76.3735 4.996C76.2135 4.716 75.9855 4.496 75.6895 4.336C75.4015 4.176 75.0735 4.096 74.7055 4.096ZM74.3575 0.256H74.9935V2.236H74.3575V0.256ZM86.7766 4.132H88.9966V4.684H86.7766V4.132ZM84.9646 1.216H85.4806V3.4C85.4806 3.928 85.4126 4.444 85.2766 4.948C85.1486 5.452 84.9686 5.928 84.7366 6.376C84.5126 6.824 84.2406 7.228 83.9206 7.588C83.6086 7.94 83.2726 8.228 82.9126 8.452L82.4806 7.96C82.8326 7.76 83.1566 7.5 83.4526 7.18C83.7566 6.852 84.0206 6.484 84.2446 6.076C84.4766 5.66 84.6526 5.224 84.7726 4.768C84.9006 4.312 84.9646 3.856 84.9646 3.4V1.216ZM85.0606 1.216H85.5766V3.376C85.5766 3.8 85.6326 4.228 85.7446 4.66C85.8646 5.092 86.0326 5.504 86.2486 5.896C86.4646 6.28 86.7166 6.632 87.0046 6.952C87.3006 7.272 87.6206 7.528 87.9646 7.72L87.5686 8.212C87.2006 7.996 86.8646 7.716 86.5606 7.372C86.2566 7.028 85.9926 6.64 85.7686 6.208C85.5446 5.768 85.3686 5.308 85.2406 4.828C85.1206 4.348 85.0606 3.864 85.0606 3.376V1.216ZM90.9646 0.159999H91.5886V10.852H90.9646V0.159999ZM88.7926 0.424H89.4046V10.288H88.7926V0.424ZM96.1236 5.704H96.7476V9.028H96.1236V5.704ZM100.108 5.704H100.756V9.028H100.108V5.704ZM93.5916 8.86H103.3V9.412H93.5916V8.86ZM98.4156 0.927999C99.1676 0.927999 99.8276 1.04 100.396 1.264C100.972 1.48 101.424 1.788 101.752 2.188C102.08 2.588 102.244 3.06 102.244 3.604C102.244 4.14 102.08 4.612 101.752 5.02C101.424 5.42 100.972 5.732 100.396 5.956C99.8276 6.172 99.1676 6.28 98.4156 6.28C97.6796 6.28 97.0236 6.172 96.4476 5.956C95.8716 5.732 95.4196 5.42 95.0916 5.02C94.7636 4.612 94.5996 4.14 94.5996 3.604C94.5996 3.06 94.7636 2.588 95.0916 2.188C95.4196 1.788 95.8716 1.48 96.4476 1.264C97.0236 1.04 97.6796 0.927999 98.4156 0.927999ZM98.4156 1.444C97.8076 1.444 97.2596 1.536 96.7716 1.72C96.2836 1.904 95.8996 2.16 95.6196 2.488C95.3396 2.808 95.1996 3.18 95.1996 3.604C95.1996 4.028 95.3396 4.4 95.6196 4.72C95.8996 5.04 96.2836 5.292 96.7716 5.476C97.2596 5.66 97.8076 5.752 98.4156 5.752C99.0396 5.752 99.5916 5.66 100.072 5.476C100.56 5.292 100.944 5.04 101.224 4.72C101.504 4.4 101.644 4.028 101.644 3.604C101.644 3.18 101.504 2.808 101.224 2.488C100.944 2.16 100.56 1.904 100.072 1.72C99.5916 1.536 99.0396 1.444 98.4156 1.444Z" fill="black" fill-opacity="0.23"/>
</svg>
