<svg width="62" height="16" viewBox="0 0 62 16" fill="none" xmlns="http://www.w3.org/2000/svg">
<path d="M10.832 0.608H12.96V11.44H10.832V0.608ZM3.088 13.456H13.344V15.168H3.088V13.456ZM3.088 10.496H5.216V14.448H3.088V10.496ZM4.256 3.52H6V4.048C6 4.93333 5.84533 5.77067 5.536 6.56C5.23733 7.34933 4.77333 8.03733 4.144 8.624C3.52533 9.2 2.74133 9.62667 1.792 9.904L0.784 8.24C1.38133 8.05867 1.89867 7.824 2.336 7.536C2.784 7.23733 3.14667 6.90133 3.424 6.528C3.712 6.15467 3.92 5.76 4.048 5.344C4.18667 4.91733 4.256 4.48533 4.256 4.048V3.52ZM4.656 3.52H6.384V4.048C6.384 4.45333 6.45333 4.85867 6.592 5.264C6.74133 5.65867 6.95467 6.032 7.232 6.384C7.52 6.736 7.88267 7.05067 8.32 7.328C8.768 7.60533 9.29067 7.824 9.888 7.984L8.896 9.648C7.94667 9.38133 7.15733 8.97067 6.528 8.416C5.89867 7.86133 5.42933 7.20533 5.12 6.448C4.81067 5.69067 4.656 4.89067 4.656 4.048V3.52ZM1.28 2.304H9.376V3.968H1.28V2.304ZM4.256 0.688H6.4V2.992H4.256V0.688ZM16.9108 1.456H26.1908V3.136H16.9108V1.456ZM15.3748 7.76H28.7828V9.488H15.3748V7.76ZM20.9268 8.976H23.0708V15.424H20.9268V8.976ZM25.1028 1.456H27.1988V2.768C27.1988 3.30133 27.1881 3.86667 27.1668 4.464C27.1561 5.06133 27.1134 5.71733 27.0388 6.432C26.9641 7.136 26.8254 7.92533 26.6228 8.8L24.5428 8.544C24.8201 7.31733 24.9801 6.24533 25.0228 5.328C25.0761 4.4 25.1028 3.54667 25.1028 2.768V1.456ZM34.1985 10.288H35.2385C35.9638 10.288 36.6092 10.2827 37.1745 10.272C37.7505 10.2507 38.2998 10.224 38.8225 10.192C39.3558 10.1493 39.8945 10.0853 40.4385 10L40.6145 11.712C40.0598 11.808 39.5105 11.8827 38.9665 11.936C38.4225 11.9787 37.8518 12.0053 37.2545 12.016C36.6572 12.0267 35.9852 12.032 35.2385 12.032H34.1985V10.288ZM34.1985 2.128H40.1825V3.824H36.2305V10.992H34.1985V2.128ZM35.6385 6.016H39.8945V7.648H35.6385V6.016ZM44.4065 0.591999H46.4385V15.408H44.4065V0.591999ZM42.6305 6.336H45.0945V8.048H42.6305V6.336ZM41.2225 0.832H43.2065V14.752H41.2225V0.832ZM49.8133 1.952H59.1893V3.648H49.8133V1.952ZM48.4373 11.76H61.8453V13.488H48.4373V11.76ZM58.0693 1.952H60.1973V3.712C60.1973 4.40533 60.1866 5.10933 60.1653 5.824C60.1546 6.53867 60.1119 7.30133 60.0373 8.112C59.9733 8.92267 59.8453 9.84 59.6533 10.864L57.5253 10.672C57.7173 9.72267 57.8453 8.848 57.9093 8.048C57.9839 7.248 58.0266 6.496 58.0373 5.792C58.0586 5.07733 58.0693 4.384 58.0693 3.712V1.952Z" fill="black"/>
</svg>
