<svg width="94" height="16" viewBox="0 0 94 16" fill="none" xmlns="http://www.w3.org/2000/svg">
<path d="M3.904 2.016H5.648V3.024C5.648 3.952 5.49867 4.832 5.2 5.664C4.90133 6.496 4.44267 7.22667 3.824 7.856C3.20533 8.47467 2.416 8.93867 1.456 9.248L0.4 7.552C1.22133 7.296 1.888 6.928 2.4 6.448C2.92267 5.968 3.30133 5.43467 3.536 4.848C3.78133 4.25067 3.904 3.64267 3.904 3.024V2.016ZM4.336 2.016H6.064V3.024C6.064 3.58933 6.18133 4.14933 6.416 4.704C6.65067 5.25867 7.01867 5.76 7.52 6.208C8.032 6.64533 8.68267 6.992 9.472 7.248L8.448 8.928C7.50933 8.64 6.736 8.19733 6.128 7.6C5.52 7.00267 5.06667 6.30933 4.768 5.52C4.48 4.72 4.336 3.888 4.336 3.024V2.016ZM0.96 1.456H8.96V3.152H0.96V1.456ZM10.176 0.608H12.304V9.184H10.176V0.608ZM11.728 3.936H14.272V5.68H11.728V3.936ZM2.672 9.76H12.304V15.264H2.672V9.76ZM10.224 11.424H4.768V13.584H10.224V11.424ZM17.0228 1.264H26.3988V2.944H17.0228V1.264ZM15.3748 6.592H28.7988V8.272H15.3748V6.592ZM25.1188 1.264H27.2148V2.448C27.2148 3.07733 27.1988 3.75467 27.1668 4.48C27.1348 5.20533 27.0068 6.048 26.7828 7.008L24.6548 6.992C24.8894 6.02133 25.0228 5.17867 25.0548 4.464C25.0974 3.74933 25.1188 3.07733 25.1188 2.448V1.264ZM16.9428 9.824H27.1508V15.264H16.9428V9.824ZM25.0708 11.488H19.0388V13.584H25.0708V11.488ZM33.7025 2.832H40.7905V4.512H33.7025V2.832ZM37.2705 5.184C37.8998 5.184 38.4545 5.33333 38.9345 5.632C39.4252 5.93067 39.8092 6.34667 40.0865 6.88C40.3745 7.40267 40.5185 8.01067 40.5185 8.704C40.5185 9.39733 40.3745 10.0107 40.0865 10.544C39.8092 11.0667 39.4252 11.4773 38.9345 11.776C38.4545 12.0747 37.8998 12.224 37.2705 12.224C36.6412 12.224 36.0812 12.0747 35.5905 11.776C35.0998 11.4773 34.7158 11.0667 34.4385 10.544C34.1612 10.0107 34.0225 9.39733 34.0225 8.704C34.0225 8.01067 34.1612 7.40267 34.4385 6.88C34.7158 6.34667 35.0998 5.93067 35.5905 5.632C36.0918 5.33333 36.6518 5.184 37.2705 5.184ZM37.2705 6.944C37.0145 6.944 36.7798 7.01333 36.5665 7.152C36.3532 7.29067 36.1878 7.49333 36.0705 7.76C35.9532 8.016 35.8945 8.33067 35.8945 8.704C35.8945 9.07733 35.9532 9.39733 36.0705 9.664C36.1878 9.93067 36.3532 10.1333 36.5665 10.272C36.7798 10.4 37.0145 10.464 37.2705 10.464C37.5372 10.464 37.7718 10.4 37.9745 10.272C38.1772 10.1333 38.3372 9.93067 38.4545 9.664C38.5718 9.39733 38.6305 9.07733 38.6305 8.704C38.6305 8.33067 38.5718 8.016 38.4545 7.76C38.3372 7.49333 38.1772 7.29067 37.9745 7.152C37.7718 7.01333 37.5372 6.944 37.2705 6.944ZM44.4225 0.591999H46.4385V15.408H44.4225V0.591999ZM42.6465 6.624H45.0785V8.336H42.6465V6.624ZM41.3025 0.863999H43.2865V14.784H41.3025V0.863999ZM36.2305 0.992H38.3265V3.888H36.2305V0.992ZM59.1253 0.591999H61.1573V15.408H59.1253V0.591999ZM54.2453 5.664H56.7093V7.392H54.2453V5.664ZM56.1333 0.832H58.1173V14.736H56.1333V0.832ZM51.0613 3.008H52.6613V4.528C52.6613 5.36 52.5973 6.18133 52.4693 6.992C52.3519 7.80267 52.1653 8.57067 51.9093 9.296C51.6533 10.0107 51.3173 10.656 50.9013 11.232C50.4853 11.808 49.9839 12.2827 49.3973 12.656L48.1333 11.088C48.8586 10.6293 49.4346 10.0533 49.8613 9.36C50.2879 8.656 50.5919 7.888 50.7733 7.056C50.9653 6.21333 51.0613 5.37067 51.0613 4.528V3.008ZM51.5413 3.008H53.1253V4.528C53.1253 5.34933 53.2159 6.16 53.3973 6.96C53.5786 7.76 53.8773 8.49067 54.2933 9.152C54.7093 9.80267 55.2746 10.336 55.9893 10.752L54.7573 12.288C53.9679 11.8187 53.3386 11.184 52.8693 10.384C52.3999 9.584 52.0586 8.68267 51.8453 7.68C51.6426 6.66667 51.5413 5.616 51.5413 4.528V3.008ZM48.6773 2.08H55.2853V3.792H48.6773V2.08ZM76.301 0.608H78.429V11.504H76.301V0.608ZM77.837 4.768H80.397V6.528H77.837V4.768ZM68.877 13.456H78.957V15.168H68.877V13.456ZM68.877 10.416H71.021V13.824H68.877V10.416ZM67.197 1.664H69.309V3.776H72.221V1.664H74.317V9.184H67.197V1.664ZM69.309 5.408V7.504H72.221V5.408H69.309ZM88.6358 2.944H92.1078V4.624H88.6358V2.944ZM88.5078 6H91.9958V7.712H88.5078V6ZM91.7558 0.591999H93.8998V9.12H91.7558V0.591999ZM86.9398 1.6H89.1958C89.1958 2.944 88.9451 4.13333 88.4438 5.168C87.9424 6.192 87.1904 7.06133 86.1878 7.776C85.1851 8.48 83.9318 9.04 82.4278 9.456L81.6118 7.792C82.8704 7.46133 83.8891 7.04533 84.6678 6.544C85.4464 6.032 86.0171 5.44533 86.3798 4.784C86.7531 4.12267 86.9398 3.408 86.9398 2.64V1.6ZM82.4118 1.6H88.4278V3.296H82.4118V1.6ZM88.9878 9.312C89.9904 9.312 90.8651 9.43467 91.6118 9.68C92.3691 9.92533 92.9504 10.272 93.3558 10.72C93.7718 11.168 93.9798 11.7013 93.9798 12.32C93.9798 12.9387 93.7718 13.472 93.3558 13.92C92.9504 14.368 92.3691 14.7147 91.6118 14.96C90.8651 15.216 89.9904 15.344 88.9878 15.344C87.9851 15.344 87.1051 15.216 86.3478 14.96C85.6011 14.7147 85.0198 14.368 84.6038 13.92C84.1878 13.472 83.9798 12.9387 83.9798 12.32C83.9798 11.7013 84.1878 11.168 84.6038 10.72C85.0198 10.272 85.6011 9.92533 86.3478 9.68C87.1051 9.43467 87.9851 9.312 88.9878 9.312ZM88.9878 10.944C88.3798 10.944 87.8571 10.9973 87.4198 11.104C86.9931 11.2107 86.6624 11.3653 86.4278 11.568C86.1931 11.7707 86.0758 12.0213 86.0758 12.32C86.0758 12.6187 86.1931 12.8747 86.4278 13.088C86.6624 13.2907 86.9931 13.4453 87.4198 13.552C87.8571 13.648 88.3798 13.696 88.9878 13.696C89.5958 13.696 90.1131 13.648 90.5398 13.552C90.9664 13.4453 91.2971 13.2907 91.5318 13.088C91.7664 12.8747 91.8838 12.6187 91.8838 12.32C91.8838 12.0213 91.7664 11.7707 91.5318 11.568C91.2971 11.3653 90.9664 11.2107 90.5398 11.104C90.1131 10.9973 89.5958 10.944 88.9878 10.944Z" fill="black"/>
</svg>
