<svg width="96" height="16" viewBox="0 0 96 16" fill="none" xmlns="http://www.w3.org/2000/svg">
<path d="M3.984 1.744H5.696V3.888C5.696 4.80533 5.616 5.70133 5.456 6.576C5.296 7.44 5.04533 8.24533 4.704 8.992C4.37333 9.73867 3.952 10.4053 3.44 10.992C2.928 11.568 2.32533 12.0267 1.632 12.368L0.352 10.656C0.981333 10.368 1.52 9.984 1.968 9.504C2.42667 9.024 2.80533 8.48 3.104 7.872C3.40267 7.264 3.62133 6.624 3.76 5.952C3.90933 5.26933 3.984 4.58133 3.984 3.888V1.744ZM4.4 1.744H6.112V3.888C6.112 4.56 6.176 5.22133 6.304 5.872C6.44267 6.52267 6.65067 7.14133 6.928 7.728C7.216 8.304 7.57333 8.82133 8 9.28C8.42667 9.73867 8.93867 10.1173 9.536 10.416L8.24 12.112C7.57867 11.7707 7.00267 11.3227 6.512 10.768C6.032 10.2027 5.63733 9.55733 5.328 8.832C5.01867 8.096 4.784 7.312 4.624 6.48C4.47467 5.63733 4.4 4.77333 4.4 3.888V1.744ZM10.112 0.608H12.256V15.424H10.112V0.608ZM11.792 6.304H14.4V8.064H11.792V6.304ZM18.9588 2.256H20.7188V3.504C20.7188 4.432 20.5641 5.31733 20.2548 6.16C19.9561 6.992 19.4974 7.72267 18.8788 8.352C18.2601 8.97067 17.4708 9.43467 16.5108 9.744L15.4228 8.08C16.2548 7.81333 16.9268 7.44 17.4388 6.96C17.9614 6.48 18.3454 5.94133 18.5908 5.344C18.8361 4.736 18.9588 4.12267 18.9588 3.504V2.256ZM19.4068 2.256H21.1348V3.504C21.1348 3.94133 21.2041 4.37867 21.3428 4.816C21.4814 5.24267 21.6894 5.65333 21.9668 6.048C22.2548 6.432 22.6174 6.77867 23.0548 7.088C23.4921 7.39733 24.0094 7.648 24.6068 7.84L23.5347 9.488C22.6068 9.18933 21.8388 8.74133 21.2308 8.144C20.6228 7.54667 20.1641 6.848 19.8548 6.048C19.5561 5.23733 19.4068 4.38933 19.4068 3.504V2.256ZM15.9988 1.648H24.0628V3.344H15.9988V1.648ZM25.5508 0.608H27.6788V11.296H25.5508V0.608ZM17.8068 13.456H28.0628V15.168H17.8068V13.456ZM17.8068 10.336H19.9348V14.304H17.8068V10.336ZM34.4545 1.488H41.6385V7.744H34.4545V1.488ZM39.5585 3.152H36.5505V6.096H39.5585V3.152ZM43.8945 0.608H46.0225V9.008H43.8945V0.608ZM39.9265 10.896H41.7505V11.104C41.7505 11.6267 41.6225 12.128 41.3665 12.608C41.1212 13.0773 40.7478 13.5093 40.2465 13.904C39.7558 14.288 39.1478 14.608 38.4225 14.864C37.6972 15.12 36.8598 15.2907 35.9105 15.376L35.2385 13.792C35.8785 13.728 36.4492 13.632 36.9505 13.504C37.4625 13.376 37.9052 13.2213 38.2785 13.04C38.6625 12.8587 38.9718 12.6613 39.2065 12.448C39.4518 12.224 39.6332 12 39.7505 11.776C39.8678 11.5413 39.9265 11.3173 39.9265 11.104V10.896ZM40.2945 10.896H42.1345V11.104C42.1345 11.36 42.2252 11.632 42.4065 11.92C42.5985 12.1973 42.8812 12.464 43.2545 12.72C43.6385 12.976 44.1238 13.2 44.7105 13.392C45.3078 13.584 46.0065 13.7173 46.8065 13.792L46.1185 15.376C45.1692 15.2907 44.3318 15.1147 43.6065 14.848C42.8812 14.592 42.2732 14.2667 41.7825 13.872C41.2918 13.4773 40.9185 13.0453 40.6625 12.576C40.4172 12.1067 40.2945 11.616 40.2945 11.104V10.896ZM35.8145 9.792H46.2305V11.392H35.8145V9.792ZM39.9425 8.592H42.1185V10.544H39.9425V8.592ZM52.0783 7.568H65.4703V9.248H52.0783V7.568ZM57.7103 5.344H59.8383V8.224H57.7103V5.344ZM53.6943 4.672H63.9503V6.336H53.6943V4.672ZM53.6943 1.232H63.8703V2.912H55.8063V5.728H53.6943V1.232ZM58.7183 9.984C60.3183 9.984 61.5769 10.224 62.4943 10.704C63.4116 11.1733 63.8703 11.8453 63.8703 12.72C63.8703 13.584 63.4116 14.2507 62.4943 14.72C61.5769 15.2 60.3183 15.44 58.7183 15.44C57.1183 15.44 55.8596 15.2 54.9423 14.72C54.0356 14.2507 53.5823 13.584 53.5823 12.72C53.5823 11.8453 54.0356 11.1733 54.9423 10.704C55.8596 10.224 57.1183 9.984 58.7183 9.984ZM58.7183 11.6C58.0569 11.6 57.5023 11.6427 57.0543 11.728C56.6169 11.8027 56.2863 11.9253 56.0623 12.096C55.8383 12.256 55.7263 12.4587 55.7263 12.704C55.7263 12.96 55.8383 13.1733 56.0623 13.344C56.2863 13.504 56.6169 13.6267 57.0543 13.712C57.5023 13.7867 58.0569 13.824 58.7183 13.824C59.3796 13.824 59.9289 13.7867 60.3663 13.712C60.8143 13.6267 61.1503 13.504 61.3743 13.344C61.5983 13.1733 61.7103 12.96 61.7103 12.704C61.7103 12.4587 61.5983 12.256 61.3743 12.096C61.1503 11.9253 60.8143 11.8027 60.3663 11.728C59.9289 11.6427 59.3796 11.6 58.7183 11.6ZM73.325 2.528H77.709V4.24H73.325V2.528ZM73.325 5.824H77.709V7.52H73.325V5.824ZM70.861 1.392C71.6077 1.392 72.2743 1.552 72.861 1.872C73.4477 2.18133 73.9117 2.608 74.253 3.152C74.605 3.696 74.781 4.32 74.781 5.024C74.781 5.71733 74.605 6.336 74.253 6.88C73.9117 7.424 73.4477 7.856 72.861 8.176C72.2743 8.48533 71.6077 8.64 70.861 8.64C70.1357 8.64 69.4743 8.48533 68.877 8.176C68.2903 7.856 67.821 7.424 67.469 6.88C67.1277 6.336 66.957 5.71733 66.957 5.024C66.957 4.32 67.1277 3.696 67.469 3.152C67.821 2.608 68.2903 2.18133 68.877 1.872C69.4743 1.552 70.1357 1.392 70.861 1.392ZM70.861 3.184C70.509 3.184 70.189 3.25867 69.901 3.408C69.613 3.54667 69.3837 3.75467 69.213 4.032C69.053 4.29867 68.973 4.62933 68.973 5.024C68.973 5.39733 69.053 5.72267 69.213 6C69.3837 6.27733 69.613 6.49067 69.901 6.64C70.189 6.77867 70.509 6.848 70.861 6.848C71.2343 6.848 71.5597 6.77867 71.837 6.64C72.125 6.49067 72.349 6.27733 72.509 6C72.669 5.72267 72.749 5.39733 72.749 5.024C72.749 4.62933 72.669 4.29867 72.509 4.032C72.349 3.75467 72.125 3.54667 71.837 3.408C71.5597 3.25867 71.2343 3.184 70.861 3.184ZM77.037 0.608H79.181V9.28H77.037V0.608ZM74.157 9.584C75.2023 9.584 76.0983 9.70133 76.845 9.936C77.6023 10.16 78.189 10.4907 78.605 10.928C79.021 11.3653 79.229 11.888 79.229 12.496C79.229 13.104 79.021 13.6267 78.605 14.064C78.189 14.512 77.6023 14.848 76.845 15.072C76.0983 15.3067 75.2023 15.424 74.157 15.424C73.1117 15.424 72.2103 15.3067 71.453 15.072C70.6957 14.848 70.109 14.512 69.693 14.064C69.2877 13.6267 69.085 13.104 69.085 12.496C69.085 11.888 69.2877 11.3653 69.693 10.928C70.109 10.4907 70.6957 10.16 71.453 9.936C72.2103 9.70133 73.1117 9.584 74.157 9.584ZM74.157 11.216C73.517 11.216 72.973 11.264 72.525 11.36C72.077 11.456 71.741 11.6 71.517 11.792C71.293 11.9733 71.181 12.208 71.181 12.496C71.181 12.784 71.293 13.024 71.517 13.216C71.741 13.408 72.077 13.552 72.525 13.648C72.973 13.7333 73.517 13.776 74.157 13.776C74.8077 13.776 75.3517 13.7333 75.789 13.648C76.237 13.552 76.573 13.408 76.797 13.216C77.021 13.024 77.133 12.784 77.133 12.496C77.133 12.208 77.021 11.9733 76.797 11.792C76.573 11.6 76.237 11.456 75.789 11.36C75.3517 11.264 74.8077 11.216 74.157 11.216ZM84.7478 1.392H86.4918V2.72C86.4918 3.69067 86.3424 4.61333 86.0438 5.488C85.7558 6.352 85.3078 7.10933 84.6998 7.76C84.0918 8.41067 83.3184 8.896 82.3798 9.216L81.2598 7.552C82.0918 7.264 82.7638 6.87467 83.2758 6.384C83.7878 5.88267 84.1611 5.312 84.3958 4.672C84.6304 4.032 84.7478 3.38133 84.7478 2.72V1.392ZM85.1798 1.392H86.8918V2.912C86.8918 3.36 86.9558 3.79733 87.0838 4.224C87.2224 4.65067 87.4251 5.05067 87.6918 5.424C87.9584 5.79733 88.2998 6.13333 88.7158 6.432C89.1318 6.72 89.6331 6.95467 90.2198 7.136L89.1158 8.8C88.2198 8.50133 87.4784 8.05867 86.8918 7.472C86.3158 6.88533 85.8838 6.20267 85.5958 5.424C85.3184 4.64533 85.1798 3.808 85.1798 2.912V1.392ZM91.0198 0.608H93.1478V9.36H91.0198V0.608ZM92.5718 4.032H95.1158V5.792H92.5718V4.032ZM88.3158 9.696C89.3504 9.696 90.2411 9.81333 90.9878 10.048C91.7344 10.272 92.3104 10.5973 92.7158 11.024C93.1211 11.44 93.3238 11.952 93.3238 12.56C93.3238 13.1573 93.1211 13.6693 92.7158 14.096C92.3104 14.5227 91.7344 14.848 90.9878 15.072C90.2411 15.3067 89.3504 15.424 88.3158 15.424C87.2918 15.424 86.4011 15.3067 85.6438 15.072C84.8971 14.848 84.3158 14.5227 83.8998 14.096C83.4944 13.6693 83.2918 13.1573 83.2918 12.56C83.2918 11.952 83.4944 11.44 83.8998 11.024C84.3158 10.5973 84.8971 10.272 85.6438 10.048C86.4011 9.81333 87.2918 9.696 88.3158 9.696ZM88.3158 11.344C87.6864 11.344 87.1584 11.392 86.7318 11.488C86.3051 11.5733 85.9798 11.7067 85.7558 11.888C85.5318 12.0587 85.4198 12.2827 85.4198 12.56C85.4198 12.8267 85.5318 13.0507 85.7558 13.232C85.9798 13.4133 86.3051 13.552 86.7318 13.648C87.1584 13.7333 87.6864 13.776 88.3158 13.776C88.9451 13.776 89.4731 13.7333 89.8998 13.648C90.3371 13.552 90.6624 13.4133 90.8758 13.232C91.0998 13.0507 91.2118 12.8267 91.2118 12.56C91.2118 12.2827 91.0998 12.0587 90.8758 11.888C90.6624 11.7067 90.3371 11.5733 89.8998 11.488C89.4731 11.392 88.9451 11.344 88.3158 11.344Z" fill="black"/>
</svg>
