<svg width="61" height="10" viewBox="0 0 61 10" fill="none" xmlns="http://www.w3.org/2000/svg">
<path d="M3.33473 5.007H3.69773V7.229H3.33473V5.007ZM3.33473 1.641H3.64273V1.861C3.64273 2.44767 3.51073 2.972 3.24673 3.434C2.98273 3.896 2.64173 4.28833 2.22373 4.611C1.80573 4.93367 1.36206 5.183 0.892727 5.359L0.705727 5.062C1.14573 4.908 1.56739 4.68067 1.97073 4.38C2.37406 4.07933 2.70039 3.71633 2.94973 3.291C3.20639 2.86567 3.33473 2.389 3.33473 1.861V1.641ZM3.37873 1.641H3.68673V1.861C3.68673 2.367 3.81506 2.829 4.07173 3.247C4.33573 3.65767 4.66939 4.006 5.07273 4.292C5.48339 4.578 5.90873 4.79433 6.34873 4.941L6.16173 5.238C5.69239 5.06933 5.24506 4.831 4.81973 4.523C4.39439 4.20767 4.04606 3.82633 3.77473 3.379C3.51073 2.93167 3.37873 2.42567 3.37873 1.861V1.641ZM0.870727 1.421H6.21673V1.751H0.870727V1.421ZM3.33473 0.0789995H3.69773V1.564H3.33473V0.0789995ZM7.59173 0.0239995H7.95473V9.737H7.59173V0.0239995ZM0.386727 7.526L0.309727 7.185C0.925727 7.185 1.60039 7.18133 2.33373 7.174C3.06706 7.15933 3.82239 7.13 4.59973 7.086C5.37706 7.03467 6.12873 6.95033 6.85473 6.833L6.89873 7.119C6.14339 7.251 5.37706 7.34633 4.59973 7.405C3.82973 7.46367 3.08539 7.50033 2.36673 7.515C1.64806 7.52233 0.98806 7.526 0.386727 7.526ZM18.1399 0.0239995H18.5029V9.737H18.1399V0.0239995ZM16.1379 4.083H18.2719V4.413H16.1379V4.083ZM15.9069 0.287999H16.2589V9.198H15.9069V0.287999ZM10.7919 6.8H11.3749C11.9322 6.8 12.4162 6.79267 12.8269 6.778C13.2449 6.76333 13.6299 6.734 13.9819 6.69C14.3412 6.63867 14.7005 6.569 15.0599 6.481L15.1259 6.811C14.7445 6.899 14.3742 6.96867 14.0149 7.02C13.6555 7.064 13.2669 7.09333 12.8489 7.108C12.4309 7.12267 11.9395 7.13 11.3749 7.13H10.7919V6.8ZM10.7919 1.267H14.4219V1.586H11.1549V6.921H10.7919V1.267ZM23.405 9V3.203H23.735L23.801 4.127H23.823C24.1237 3.82633 24.4317 3.57333 24.747 3.368C25.0623 3.16267 25.4217 3.06 25.825 3.06C26.419 3.06 26.859 3.24333 27.145 3.61C27.431 3.96933 27.574 4.523 27.574 5.271V9H27.178V5.326C27.178 4.688 27.068 4.21133 26.848 3.896C26.6353 3.58067 26.2797 3.423 25.781 3.423C25.4217 3.423 25.0917 3.51833 24.791 3.709C24.4977 3.89967 24.1677 4.18567 23.801 4.567V9H23.405ZM37.0569 0.0239995H37.4199V9.737H37.0569V0.0239995ZM35.1319 4.182H37.2659V4.512H35.1319V4.182ZM33.0309 1.344H33.3829C33.3829 1.90133 33.3169 2.466 33.1849 3.038C33.0602 3.61 32.8512 4.171 32.5579 4.721C32.2719 5.26367 31.8869 5.777 31.4029 6.261C30.9262 6.73767 30.3359 7.17033 29.6319 7.559L29.4119 7.273C30.3065 6.79633 31.0179 6.239 31.5459 5.601C32.0739 4.95567 32.4515 4.27 32.6789 3.544C32.9135 2.818 33.0309 2.09567 33.0309 1.377V1.344ZM29.6649 1.344H33.2069V1.674H29.6649V1.344ZM34.9009 0.287999H35.2639V9.198H34.9009V0.287999ZM46.029 6.151H46.381V9.748H46.029V6.151ZM41.816 5.953H50.583V6.283H41.816V5.953ZM46.029 1.619H46.348V1.883C46.348 2.22767 46.2673 2.54667 46.106 2.84C45.9447 3.126 45.7283 3.38633 45.457 3.621C45.193 3.85567 44.896 4.06467 44.566 4.248C44.236 4.424 43.9023 4.57433 43.565 4.699C43.2277 4.81633 42.9123 4.90433 42.619 4.963L42.476 4.655C42.7327 4.611 43.0187 4.53767 43.334 4.435C43.6493 4.325 43.9647 4.18933 44.28 4.028C44.5953 3.85933 44.885 3.66867 45.149 3.456C45.413 3.24333 45.6257 3.005 45.787 2.741C45.9483 2.477 46.029 2.191 46.029 1.883V1.619ZM46.073 1.619H46.381V1.883C46.381 2.191 46.4617 2.477 46.623 2.741C46.7843 3.005 46.9933 3.24333 47.25 3.456C47.514 3.66867 47.8037 3.85933 48.119 4.028C48.4343 4.18933 48.7497 4.325 49.065 4.435C49.3803 4.53767 49.6663 4.611 49.923 4.655L49.78 4.963C49.4867 4.90433 49.1713 4.81633 48.834 4.699C48.4967 4.57433 48.163 4.424 47.833 4.248C47.5103 4.06467 47.217 3.85567 46.953 3.621C46.689 3.38633 46.4763 3.126 46.315 2.84C46.1537 2.54667 46.073 2.22767 46.073 1.883V1.619ZM42.729 1.311H49.681V1.641H42.729V1.311ZM46.029 0.0019998H46.381V1.432H46.029V0.0019998ZM58.8871 0.0239995H59.2501V9.737H58.8871V0.0239995ZM59.1401 4.204H61.0101V4.523H59.1401V4.204ZM56.4781 1.113H56.8301C56.8301 1.97833 56.6688 2.82167 56.3461 3.643C56.0235 4.457 55.5321 5.216 54.8721 5.92C54.2121 6.61667 53.3725 7.218 52.3531 7.724L52.1551 7.427C53.1011 6.95767 53.8931 6.39667 54.5311 5.744C55.1765 5.084 55.6605 4.36167 55.9831 3.577C56.3131 2.79233 56.4781 1.982 56.4781 1.146V1.113ZM52.5181 1.113H56.6651V1.443H52.5181V1.113Z" fill="black" fill-opacity="0.37"/>
</svg>
