<svg width="70" height="11" viewBox="0 0 70 11" fill="none" xmlns="http://www.w3.org/2000/svg">
<path d="M3.45554 8L0.804539 0.0139999H1.23354L2.77354 4.788C2.92754 5.27933 3.06687 5.73033 3.19154 6.141C3.32354 6.54433 3.47387 6.99167 3.64254 7.483H3.68654C3.85521 6.99167 4.00187 6.54433 4.12654 6.141C4.25854 5.73033 4.40521 5.27933 4.56654 4.788L6.09554 0.0139999H6.51354L3.87354 8H3.45554ZM7.79203 8V0.0139999H8.19903V8H7.79203ZM10.6172 8V0.0139999H12.4102C13.2389 0.0139999 13.9172 0.179 14.4452 0.508999C14.9732 0.839 15.3619 1.301 15.6112 1.895C15.8679 2.489 15.9962 3.18567 15.9962 3.985C15.9962 4.777 15.8679 5.47733 15.6112 6.086C15.3619 6.68733 14.9732 7.15667 14.4452 7.494C13.9172 7.83133 13.2426 8 12.4212 8H10.6172ZM11.0242 7.637H12.3552C13.1106 7.637 13.7229 7.47933 14.1922 7.164C14.6689 6.84867 15.0172 6.416 15.2372 5.866C15.4572 5.30867 15.5672 4.68167 15.5672 3.985C15.5672 3.281 15.4572 2.65767 15.2372 2.115C15.0172 1.57233 14.6689 1.147 14.1922 0.839C13.7229 0.531 13.1106 0.377 12.3552 0.377H11.0242V7.637ZM16.8227 9.386V8.99H22.5867V9.386H16.8227ZM23.7725 8V7.637H25.6095V1.004H24.2125V0.717999C24.5205 0.666666 24.7955 0.600666 25.0375 0.52C25.2795 0.439333 25.4849 0.351333 25.6535 0.255999H25.9945V7.637H27.7105V8H23.7725ZM31.2469 8.143C30.8362 8.143 30.4805 8.088 30.1799 7.978C29.8792 7.868 29.6189 7.72867 29.3989 7.56C29.1789 7.39133 28.9882 7.22267 28.8269 7.054L29.0799 6.768C29.3145 7.01733 29.6005 7.24833 29.9379 7.461C30.2752 7.67367 30.7189 7.78 31.2689 7.78C31.6355 7.78 31.9582 7.70667 32.2369 7.56C32.5229 7.406 32.7465 7.197 32.9079 6.933C33.0692 6.66167 33.1499 6.34633 33.1499 5.987C33.1499 5.613 33.0545 5.28667 32.8639 5.008C32.6732 4.72933 32.3725 4.513 31.9619 4.359C31.5585 4.19767 31.0305 4.117 30.3779 4.117V3.732C30.9939 3.732 31.4815 3.655 31.8409 3.501C32.2002 3.33967 32.4569 3.127 32.6109 2.863C32.7722 2.59167 32.8529 2.29467 32.8529 1.972C32.8529 1.51733 32.7062 1.15433 32.4129 0.883C32.1195 0.604333 31.7235 0.464999 31.2249 0.464999C30.8655 0.464999 30.5282 0.549333 30.2129 0.717999C29.8975 0.886666 29.6335 1.092 29.4209 1.334L29.1679 1.059C29.4245 0.802333 29.7179 0.582333 30.0479 0.399C30.3852 0.208333 30.7775 0.113 31.2249 0.113C31.6062 0.113 31.9509 0.186333 32.2589 0.333C32.5742 0.472333 32.8235 0.681333 33.0069 0.96C33.1902 1.23133 33.2819 1.56133 33.2819 1.95C33.2819 2.47067 33.1352 2.88867 32.8419 3.204C32.5559 3.51933 32.2002 3.74667 31.7749 3.886V3.93C32.0975 3.996 32.3945 4.12067 32.6659 4.304C32.9372 4.48 33.1535 4.70733 33.3149 4.986C33.4835 5.26467 33.5679 5.591 33.5679 5.965C33.5679 6.41233 33.4652 6.79733 33.2599 7.12C33.0545 7.44267 32.7759 7.69567 32.4239 7.879C32.0792 8.055 31.6869 8.143 31.2469 8.143ZM37.9732 8V2.258C37.9732 2.08933 37.9769 1.87667 37.9842 1.62C37.9989 1.356 38.0135 1.13967 38.0282 0.970999H37.9732C37.8779 1.125 37.7752 1.27533 37.6652 1.422C37.5625 1.56867 37.4562 1.72633 37.3462 1.895L34.9262 5.283H39.5462V5.635H34.3982V5.426L38.0832 0.255999H38.3582V8H37.9732ZM42.2025 8.143C41.8579 8.143 41.5572 8.077 41.3005 7.945C41.0512 7.813 40.8312 7.637 40.6405 7.417L40.8935 7.131C41.0695 7.351 41.2712 7.516 41.4985 7.626C41.7332 7.72867 41.9752 7.78 42.2245 7.78C42.6499 7.78 43.0422 7.65533 43.4015 7.406C43.7609 7.14933 44.0505 6.72767 44.2705 6.141C44.4979 5.547 44.6115 4.74767 44.6115 3.743C44.6115 3.11233 44.5382 2.55133 44.3915 2.06C44.2449 1.56133 44.0175 1.17267 43.7095 0.894C43.4015 0.607999 43.0019 0.464999 42.5105 0.464999C42.2025 0.464999 41.9239 0.556666 41.6745 0.74C41.4325 0.923333 41.2382 1.169 41.0915 1.477C40.9522 1.785 40.8825 2.12967 40.8825 2.511C40.8825 2.89233 40.9412 3.24067 41.0585 3.556C41.1759 3.864 41.3629 4.10967 41.6195 4.293C41.8835 4.469 42.2209 4.557 42.6315 4.557C42.9249 4.557 43.2475 4.458 43.5995 4.26C43.9589 4.05467 44.3072 3.71733 44.6445 3.248L44.6555 3.754C44.4722 3.98133 44.2669 4.183 44.0395 4.359C43.8195 4.52767 43.5885 4.65967 43.3465 4.755C43.1045 4.85033 42.8552 4.898 42.5985 4.898C42.1512 4.898 41.7662 4.80633 41.4435 4.623C41.1282 4.43967 40.8862 4.172 40.7175 3.82C40.5489 3.46067 40.4645 3.02433 40.4645 2.511C40.4645 2.049 40.5599 1.63833 40.7505 1.279C40.9412 0.912333 41.1905 0.626333 41.4985 0.421C41.8139 0.215667 42.1585 0.113 42.5325 0.113C42.9212 0.113 43.2695 0.193666 43.5775 0.354999C43.8855 0.516333 44.1459 0.754666 44.3585 1.07C44.5712 1.378 44.7325 1.75567 44.8425 2.203C44.9599 2.65033 45.0185 3.16367 45.0185 3.743C45.0185 4.56433 44.9415 5.25733 44.7875 5.822C44.6335 6.38667 44.4245 6.84133 44.1605 7.186C43.8965 7.52333 43.5959 7.769 43.2585 7.923C42.9212 8.06967 42.5692 8.143 42.2025 8.143ZM46.9379 8.143C46.8279 8.143 46.7252 8.099 46.6299 8.011C46.5419 7.93033 46.4979 7.81667 46.4979 7.67C46.4979 7.50867 46.5419 7.38767 46.6299 7.307C46.7252 7.219 46.8279 7.175 46.9379 7.175C47.0552 7.175 47.1579 7.219 47.2459 7.307C47.3412 7.38767 47.3889 7.50867 47.3889 7.67C47.3889 7.81667 47.3412 7.93033 47.2459 8.011C47.1579 8.099 47.0552 8.143 46.9379 8.143ZM49.3738 8V2.203H49.7038L49.7698 3.127H49.7918C50.0558 2.82633 50.3491 2.57333 50.6718 2.368C50.9944 2.16267 51.3134 2.06 51.6288 2.06C52.1054 2.06 52.4648 2.17 52.7068 2.39C52.9561 2.61 53.1284 2.90333 53.2238 3.27C53.5684 2.896 53.9021 2.60267 54.2248 2.39C54.5548 2.17 54.8848 2.06 55.2148 2.06C55.7794 2.06 56.2048 2.24333 56.4908 2.61C56.7841 2.96933 56.9308 3.523 56.9308 4.271V8H56.5458V4.326C56.5458 3.688 56.4321 3.21133 56.2048 2.896C55.9848 2.58067 55.6401 2.423 55.1708 2.423C54.8848 2.423 54.5951 2.51833 54.3018 2.709C54.0084 2.89967 53.6894 3.18567 53.3448 3.567V8H52.9598V4.326C52.9598 3.688 52.8498 3.21133 52.6298 2.896C52.4098 2.58067 52.0651 2.423 51.5958 2.423C51.3171 2.423 51.0238 2.51833 50.7158 2.709C50.4151 2.89967 50.0998 3.18567 49.7698 3.567V8H49.3738ZM59.1491 10.673V2.203H59.4791L59.5451 2.951H59.5671C59.8531 2.72367 60.1648 2.51833 60.5021 2.335C60.8468 2.15167 61.1988 2.06 61.5581 2.06C62.0861 2.06 62.5225 2.18467 62.8671 2.434C63.2118 2.676 63.4685 3.017 63.6371 3.457C63.8058 3.897 63.8901 4.41767 63.8901 5.019C63.8901 5.67167 63.7691 6.23267 63.5271 6.702C63.2925 7.17133 62.9808 7.53067 62.5921 7.78C62.2035 8.022 61.7781 8.143 61.3161 8.143C61.0448 8.143 60.7588 8.08067 60.4581 7.956C60.1575 7.824 59.8531 7.64433 59.5451 7.417V8.506V10.673H59.1491ZM61.3491 7.78C61.7598 7.78 62.1228 7.66267 62.4381 7.428C62.7608 7.19333 63.0138 6.867 63.1971 6.449C63.3805 6.031 63.4721 5.55433 63.4721 5.019C63.4721 4.52767 63.4061 4.08767 63.2741 3.699C63.1495 3.303 62.9441 2.99133 62.6581 2.764C62.3795 2.53667 62.0018 2.423 61.5251 2.423C61.2318 2.423 60.9201 2.511 60.5901 2.687C60.2601 2.85567 59.9118 3.10133 59.5451 3.424V6.999C59.8898 7.285 60.2198 7.48667 60.5351 7.604C60.8505 7.72133 61.1218 7.78 61.3491 7.78ZM68.3091 8V2.258C68.3091 2.08933 68.3128 1.87667 68.3201 1.62C68.3348 1.356 68.3495 1.13967 68.3641 0.970999H68.3091C68.2138 1.125 68.1111 1.27533 68.0011 1.422C67.8985 1.56867 67.7921 1.72633 67.6821 1.895L65.2621 5.283H69.8821V5.635H64.7341V5.426L68.4191 0.255999H68.6941V8H68.3091Z" fill="black"/>
</svg>
