<svg width="29" height="10" viewBox="0 0 29 10" fill="none" xmlns="http://www.w3.org/2000/svg">
<path d="M7.43929 0.0239995H7.79129V9.737H7.43929V0.0239995ZM2.78629 0.848999C3.25562 0.848999 3.66629 0.984666 4.01829 1.256C4.37762 1.52733 4.65629 1.91233 4.85429 2.411C5.05962 2.90233 5.16229 3.48167 5.16229 4.149C5.16229 4.81633 5.05962 5.39933 4.85429 5.898C4.65629 6.38933 4.37762 6.77067 4.01829 7.042C3.66629 7.31333 3.25562 7.449 2.78629 7.449C2.32429 7.449 1.91362 7.31333 1.55429 7.042C1.19496 6.77067 0.912623 6.38933 0.707289 5.898C0.509289 5.39933 0.410289 4.81633 0.410289 4.149C0.410289 3.48167 0.509289 2.90233 0.707289 2.411C0.912623 1.91233 1.19496 1.52733 1.55429 1.256C1.91362 0.984666 2.32429 0.848999 2.78629 0.848999ZM2.78629 1.157C2.39029 1.157 2.03829 1.289 1.73029 1.553C1.42962 1.80967 1.19129 2.16533 1.01529 2.62C0.846623 3.06733 0.762289 3.577 0.762289 4.149C0.762289 4.721 0.846623 5.23433 1.01529 5.689C1.19129 6.14367 1.42962 6.503 1.73029 6.767C2.03829 7.02367 2.39029 7.152 2.78629 7.152C3.18229 7.152 3.53062 7.02367 3.83129 6.767C4.13929 6.503 4.37762 6.14367 4.54629 5.689C4.72229 5.23433 4.81029 4.721 4.81029 4.149C4.81029 3.577 4.72229 3.06733 4.54629 2.62C4.37762 2.16533 4.13929 1.80967 3.83129 1.553C3.53062 1.289 3.18229 1.157 2.78629 1.157ZM14.6874 1.718H17.6794V2.048H14.6874V1.718ZM14.6874 4.006H17.6794V4.336H14.6874V4.006ZM17.5694 0.0349994H17.9324V7.284H17.5694V0.0349994ZM11.9594 9.143H18.2514V9.473H11.9594V9.143ZM11.9594 6.503H12.3114V9.187H11.9594V6.503ZM12.7074 0.694999C13.1768 0.694999 13.5948 0.793999 13.9614 0.992C14.3281 1.19 14.6141 1.465 14.8194 1.817C15.0321 2.169 15.1384 2.576 15.1384 3.038C15.1384 3.5 15.0321 3.907 14.8194 4.259C14.6141 4.611 14.3281 4.886 13.9614 5.084C13.5948 5.282 13.1768 5.381 12.7074 5.381C12.2381 5.381 11.8201 5.282 11.4534 5.084C11.0868 4.886 10.7971 4.611 10.5844 4.259C10.3791 3.907 10.2764 3.5 10.2764 3.038C10.2764 2.576 10.3791 2.169 10.5844 1.817C10.7971 1.465 11.0868 1.19 11.4534 0.992C11.8201 0.793999 12.2381 0.694999 12.7074 0.694999ZM12.7074 1.025C12.3114 1.025 11.9558 1.11667 11.6404 1.3C11.3251 1.476 11.0758 1.718 10.8924 2.026C10.7164 2.32667 10.6284 2.664 10.6284 3.038C10.6284 3.412 10.7164 3.753 10.8924 4.061C11.0758 4.369 11.3251 4.61467 11.6404 4.798C11.9558 4.974 12.3114 5.062 12.7074 5.062C13.1034 5.062 13.4591 4.974 13.7744 4.798C14.0898 4.61467 14.3354 4.369 14.5114 4.061C14.6948 3.753 14.7864 3.412 14.7864 3.038C14.7864 2.664 14.6948 2.32667 14.5114 2.026C14.3354 1.718 14.0898 1.476 13.7744 1.3C13.4591 1.11667 13.1034 1.025 12.7074 1.025ZM27.9856 0.0239995H28.3486V9.737H27.9856V0.0239995ZM26.0606 4.138H28.1946V4.49H26.0606V4.138ZM25.8406 0.287999H26.2036V9.198H25.8406V0.287999ZM22.5076 1.52H22.8156V2.917C22.8156 3.47433 22.7569 3.995 22.6396 4.479C22.5222 4.963 22.3572 5.403 22.1446 5.799C21.9319 6.18767 21.6826 6.53233 21.3966 6.833C21.1106 7.13367 20.7952 7.383 20.4506 7.581L20.1976 7.295C20.6449 7.06033 21.0409 6.734 21.3856 6.316C21.7302 5.89067 22.0016 5.392 22.1996 4.82C22.4049 4.24067 22.5076 3.60633 22.5076 2.917V1.52ZM22.5406 1.52H22.8486V2.917C22.8486 3.533 22.9439 4.10867 23.1346 4.644C23.3326 5.172 23.6002 5.634 23.9376 6.03C24.2749 6.426 24.6562 6.734 25.0816 6.954L24.8396 7.251C24.3996 7.00167 24.0036 6.66433 23.6516 6.239C23.3069 5.81367 23.0356 5.32233 22.8376 4.765C22.6396 4.20033 22.5406 3.58433 22.5406 2.917V1.52ZM20.3406 1.333H24.9386V1.663H20.3406V1.333Z" fill="black"/>
</svg>
