<svg width="286" height="28" viewBox="0 0 286 28" fill="none" xmlns="http://www.w3.org/2000/svg">
<path d="M20.17 0.549998H21.16V20.2H20.17V0.549998ZM4.51 25.39H21.82V26.29H4.51V25.39ZM4.51 18.34H5.5V25.66H4.51V18.34ZM1 3.31H15.16V4.21H1V3.31ZM0.4 15.67L0.22 14.71C1.78 14.71 3.49 14.7 5.35 14.68C7.23 14.64 9.15 14.57 11.11 14.47C13.07 14.37 14.94 14.21 16.72 13.99L16.81 14.8C14.99 15.06 13.1 15.26 11.14 15.4C9.2 15.52 7.3 15.6 5.44 15.64C3.6 15.66 1.92 15.67 0.4 15.67ZM4.15 3.97H5.14V14.95H4.15V3.97ZM11.02 3.97H12.01V14.95H11.02V3.97ZM30.7277 15.46H48.4577V16.36H30.7277V15.46ZM27.3677 22.3H51.3977V23.2H27.3677V22.3ZM30.7277 3.16H48.1277V4.03H31.7177V15.82H30.7277V3.16ZM31.3577 9.13H47.5877V10.03H31.3577V9.13ZM81.9271 0.519999H82.8871V27.01H81.9271V0.519999ZM69.2371 2.77C70.5171 2.77 71.6371 3.14 72.5971 3.88C73.5771 4.62 74.3371 5.67 74.8771 7.03C75.4371 8.37 75.7171 9.95 75.7171 11.77C75.7171 13.59 75.4371 15.18 74.8771 16.54C74.3371 17.88 73.5771 18.92 72.5971 19.66C71.6371 20.4 70.5171 20.77 69.2371 20.77C67.9771 20.77 66.8571 20.4 65.8771 19.66C64.8971 18.92 64.1271 17.88 63.5671 16.54C63.0271 15.18 62.7571 13.59 62.7571 11.77C62.7571 9.95 63.0271 8.37 63.5671 7.03C64.1271 5.67 64.8971 4.62 65.8771 3.88C66.8571 3.14 67.9771 2.77 69.2371 2.77ZM69.2371 3.61C68.1571 3.61 67.1971 3.97 66.3571 4.69C65.5371 5.39 64.8871 6.36 64.4071 7.6C63.9471 8.82 63.7171 10.21 63.7171 11.77C63.7171 13.33 63.9471 14.73 64.4071 15.97C64.8871 17.21 65.5371 18.19 66.3571 18.91C67.1971 19.61 68.1571 19.96 69.2371 19.96C70.3171 19.96 71.2671 19.61 72.0871 18.91C72.9271 18.19 73.5771 17.21 74.0371 15.97C74.5171 14.73 74.7571 13.33 74.7571 11.77C74.7571 10.21 74.5171 8.82 74.0371 7.6C73.5771 6.36 72.9271 5.39 72.0871 4.69C71.2671 3.97 70.3171 3.61 69.2371 3.61ZM89.1248 14.5H113.155V15.4H89.1248V14.5ZM92.2748 1.33H109.885V6.76H93.3248V10.9H92.3648V5.89H108.925V2.23H92.2748V1.33ZM92.3648 10.48H110.515V11.35H92.3648V10.48ZM92.5748 18.64H109.795V26.59H92.5748V18.64ZM108.835 19.51H93.5348V25.69H108.835V19.51ZM128.692 1.06C131.512 1.06 133.722 1.46 135.322 2.26C136.922 3.06 137.722 4.21 137.722 5.71C137.722 7.21 136.922 8.37 135.322 9.19C133.722 9.99 131.512 10.39 128.692 10.39C125.872 10.39 123.662 9.99 122.062 9.19C120.462 8.37 119.662 7.21 119.662 5.71C119.662 4.21 120.462 3.06 122.062 2.26C123.662 1.46 125.872 1.06 128.692 1.06ZM128.692 1.9C127.092 1.9 125.682 2.06 124.462 2.38C123.262 2.68 122.322 3.12 121.642 3.7C120.982 4.26 120.652 4.93 120.652 5.71C120.652 6.49 120.982 7.17 121.642 7.75C122.322 8.31 123.262 8.75 124.462 9.07C125.682 9.37 127.092 9.52 128.692 9.52C130.312 9.52 131.722 9.37 132.922 9.07C134.122 8.75 135.052 8.31 135.712 7.75C136.392 7.17 136.732 6.49 136.732 5.71C136.732 4.93 136.392 4.26 135.712 3.7C135.052 3.12 134.122 2.68 132.922 2.38C131.722 2.06 130.312 1.9 128.692 1.9ZM116.752 12.73H140.662V13.6H116.752V12.73ZM119.812 16.66H137.422V21.76H120.862V25.87H119.902V20.89H136.462V17.53H119.812V16.66ZM119.902 25.69H138.322V26.59H119.902V25.69ZM171.342 0.519999H172.332V14.71H171.342V0.519999ZM155.862 16.21H156.822V20.2H171.372V16.21H172.332V26.59H155.862V16.21ZM156.822 21.1V25.72H171.372V21.1H156.822ZM158.352 1.96C159.652 1.96 160.792 2.21 161.772 2.71C162.772 3.19 163.552 3.88 164.112 4.78C164.672 5.66 164.952 6.7 164.952 7.9C164.952 9.08 164.672 10.12 164.112 11.02C163.552 11.92 162.772 12.62 161.772 13.12C160.792 13.6 159.652 13.84 158.352 13.84C157.072 13.84 155.932 13.6 154.932 13.12C153.932 12.62 153.152 11.92 152.592 11.02C152.032 10.12 151.752 9.08 151.752 7.9C151.752 6.7 152.032 5.66 152.592 4.78C153.152 3.88 153.932 3.19 154.932 2.71C155.932 2.21 157.072 1.96 158.352 1.96ZM158.352 2.83C157.272 2.83 156.302 3.05 155.442 3.49C154.602 3.93 153.932 4.54 153.432 5.32C152.952 6.08 152.712 6.94 152.712 7.9C152.712 8.84 152.952 9.7 153.432 10.48C153.932 11.24 154.602 11.85 155.442 12.31C156.302 12.75 157.272 12.97 158.352 12.97C159.452 12.97 160.422 12.75 161.262 12.31C162.122 11.85 162.792 11.24 163.272 10.48C163.772 9.7 164.022 8.84 164.022 7.9C164.022 6.94 163.772 6.08 163.272 5.32C162.792 4.54 162.122 3.93 161.262 3.49C160.422 3.05 159.452 2.83 158.352 2.83ZM179.77 14.2H181.51C183.35 14.2 184.91 14.19 186.19 14.17C187.49 14.13 188.67 14.06 189.73 13.96C190.79 13.86 191.87 13.71 192.97 13.51L193.09 14.41C192.23 14.55 191.4 14.67 190.6 14.77C189.8 14.85 188.96 14.91 188.08 14.95C187.22 14.99 186.25 15.02 185.17 15.04C184.11 15.06 182.89 15.07 181.51 15.07H179.77V14.2ZM179.68 2.2H190.84V8.83H180.73V14.53H179.77V7.93H189.88V3.1H179.68V2.2ZM198.94 0.549998H199.93V16.78H198.94V0.549998ZM192.85 4.75H199.36V5.62H192.85V4.75ZM192.85 10.06H199.36V10.96H192.85V10.06ZM182.65 18.43H199.93V27.07H198.94V19.33H182.65V18.43ZM225.097 0.519999H226.087V27.01H225.097V0.519999ZM225.817 11.98H230.947V12.85H225.817V11.98ZM205.987 5.08H221.797V5.98H205.987V5.08ZM214.087 8.89C215.287 8.89 216.347 9.14 217.267 9.64C218.207 10.14 218.937 10.83 219.457 11.71C219.977 12.57 220.237 13.58 220.237 14.74C220.237 15.9 219.977 16.92 219.457 17.8C218.937 18.68 218.207 19.37 217.267 19.87C216.347 20.35 215.287 20.59 214.087 20.59C212.887 20.59 211.817 20.35 210.877 19.87C209.957 19.37 209.227 18.68 208.687 17.8C208.167 16.92 207.907 15.9 207.907 14.74C207.907 13.58 208.167 12.57 208.687 11.71C209.227 10.83 209.957 10.14 210.877 9.64C211.817 9.14 212.887 8.89 214.087 8.89ZM214.087 9.79C213.087 9.79 212.187 10.01 211.387 10.45C210.587 10.89 209.957 11.49 209.497 12.25C209.057 12.99 208.837 13.82 208.837 14.74C208.837 15.66 209.057 16.5 209.497 17.26C209.957 18 210.587 18.59 211.387 19.03C212.187 19.47 213.087 19.69 214.087 19.69C215.087 19.69 215.977 19.47 216.757 19.03C217.557 18.59 218.177 18 218.617 17.26C219.077 16.5 219.307 15.66 219.307 14.74C219.307 13.82 219.077 12.99 218.617 12.25C218.177 11.49 217.557 10.89 216.757 10.45C215.977 10.01 215.087 9.79 214.087 9.79ZM213.517 0.73H214.507V5.71H213.517V0.73ZM244.175 10.6H249.995V11.5H244.175V10.6ZM240.005 3.22H240.845V8.89C240.845 10.15 240.665 11.38 240.305 12.58C239.965 13.78 239.495 14.91 238.895 15.97C238.295 17.03 237.605 17.98 236.825 18.82C236.045 19.66 235.225 20.34 234.365 20.86L233.645 20.11C234.485 19.63 235.285 19 236.045 18.22C236.805 17.42 237.485 16.52 238.085 15.52C238.685 14.5 239.155 13.43 239.495 12.31C239.835 11.17 240.005 10.03 240.005 8.89V3.22ZM240.095 3.22H240.935V8.89C240.935 9.93 241.095 10.98 241.415 12.04C241.755 13.1 242.215 14.11 242.795 15.07C243.375 16.03 244.035 16.9 244.775 17.68C245.535 18.46 246.335 19.08 247.175 19.54L246.485 20.29C245.625 19.77 244.805 19.11 244.025 18.31C243.265 17.49 242.585 16.57 241.985 15.55C241.405 14.51 240.945 13.43 240.605 12.31C240.265 11.17 240.095 10.03 240.095 8.89V3.22ZM255.005 0.519999H255.995V27.01H255.005V0.519999ZM249.635 1.24H250.595V25.54H249.635V1.24ZM267.843 14.35H268.803V22.78H267.843V14.35ZM277.803 14.35H278.793V22.78H277.803V14.35ZM261.333 22.39H285.363V23.29H261.333V22.39ZM273.273 2.59C275.113 2.59 276.733 2.86 278.133 3.4C279.533 3.94 280.623 4.7 281.403 5.68C282.203 6.64 282.603 7.78 282.603 9.1C282.603 10.4 282.203 11.54 281.403 12.52C280.623 13.5 279.533 14.26 278.133 14.8C276.733 15.32 275.113 15.58 273.273 15.58C271.453 15.58 269.833 15.32 268.413 14.8C267.013 14.26 265.913 13.5 265.113 12.52C264.333 11.54 263.943 10.4 263.943 9.1C263.943 7.78 264.333 6.64 265.113 5.68C265.913 4.7 267.013 3.94 268.413 3.4C269.833 2.86 271.453 2.59 273.273 2.59ZM273.273 3.43C271.673 3.43 270.233 3.68 268.953 4.18C267.673 4.66 266.663 5.33 265.923 6.19C265.183 7.03 264.813 8 264.813 9.1C264.813 10.18 265.183 11.15 265.923 12.01C266.663 12.85 267.673 13.52 268.953 14.02C270.233 14.5 271.673 14.74 273.273 14.74C274.893 14.74 276.333 14.5 277.593 14.02C278.873 13.52 279.883 12.85 280.623 12.01C281.363 11.15 281.733 10.18 281.733 9.1C281.733 8 281.363 7.03 280.623 6.19C279.883 5.33 278.873 4.66 277.593 4.18C276.333 3.68 274.893 3.43 273.273 3.43Z" fill="#AFAFAF" fill-opacity="0.85"/>
</svg>
